<?xml version="1.0" encoding="UTF-8"?><svg id="Layer_2" xmlns="http://www.w3.org/2000/svg" width="1920" height="1080" viewBox="0 0 1920 1080"><defs><style>.cls-1,.cls-2{font-family:CourierNewPS-BoldMT, 'Courier New';font-size:30px;}.cls-1,.cls-3{font-weight:700;}.cls-4{font-family:CourierNewPS-BoldItalicMT, 'Courier New';font-size:33px;font-style:italic;}.cls-5,.cls-6,.cls-7,.cls-8{stroke-width:0px;}.cls-6{fill:#f7adf5;}.cls-7{fill:#a89595;}.cls-8{fill:#fff;}</style></defs><g id="Layer_1-2"><rect class="cls-7" x=".5" y=".5" width="1919" height="1079"/><path class="cls-5" d="m1919,1v1078H1V1h1918m1-1H0v1080h1920V0h0Z"/><circle class="cls-6" cx="614" cy="842" r="18.5"/><path class="cls-5" d="m614,824c9.93,0,18,8.07,18,18s-8.07,18-18,18-18-8.07-18-18,8.07-18,18-18m0-1c-10.49,0-19,8.51-19,19s8.51,19,19,19,19-8.51,19-19-8.51-19-19-19h0Z"/><circle class="cls-6" cx="770" cy="842" r="18.5"/><path class="cls-5" d="m770,824c9.93,0,18,8.07,18,18s-8.07,18-18,18-18-8.07-18-18,8.07-18,18-18m0-1c-10.49,0-19,8.51-19,19s8.51,19,19,19,19-8.51,19-19-8.51-19-19-19h0Z"/><circle class="cls-6" cx="718" cy="842" r="18.5"/><path class="cls-5" d="m718,824c9.93,0,18,8.07,18,18s-8.07,18-18,18-18-8.07-18-18,8.07-18,18-18m0-1c-10.49,0-19,8.51-19,19s8.51,19,19,19,19-8.51,19-19-8.51-19-19-19h0Z"/><circle class="cls-6" cx="666" cy="842" r="18.5"/><path class="cls-5" d="m666,824c9.93,0,18,8.07,18,18s-8.07,18-18,18-18-8.07-18-18,8.07-18,18-18m0-1c-10.49,0-19,8.51-19,19s8.51,19,19,19,19-8.51,19-19-8.51-19-19-19h0Z"/><circle class="cls-8" cx="822" cy="842" r="18.5"/><path class="cls-5" d="m822,824c9.93,0,18,8.07,18,18s-8.07,18-18,18-18-8.07-18-18,8.07-18,18-18m0-1c-10.49,0-19,8.51-19,19s8.51,19,19,19,19-8.51,19-19-8.51-19-19-19h0Z"/><text class="cls-1" transform="translate(368.89 852.19)"><tspan x="0" y="0">Illustrator </tspan></text><circle class="cls-6" cx="616" cy="904" r="18.5"/><path class="cls-5" d="m616,886c9.93,0,18,8.07,18,18s-8.07,18-18,18-18-8.07-18-18,8.07-18,18-18m0-1c-10.49,0-19,8.51-19,19s8.51,19,19,19,19-8.51,19-19-8.51-19-19-19h0Z"/><circle class="cls-8" cx="772" cy="904" r="18.5"/><path class="cls-5" d="m772,886c9.93,0,18,8.07,18,18s-8.07,18-18,18-18-8.07-18-18,8.07-18,18-18m0-1c-10.49,0-19,8.51-19,19s8.51,19,19,19,19-8.51,19-19-8.51-19-19-19h0Z"/><circle class="cls-6" cx="720" cy="904" r="18.5"/><path class="cls-5" d="m720,886c9.93,0,18,8.07,18,18s-8.07,18-18,18-18-8.07-18-18,8.07-18,18-18m0-1c-10.49,0-19,8.51-19,19s8.51,19,19,19,19-8.51,19-19-8.51-19-19-19h0Z"/><circle class="cls-6" cx="668" cy="904" r="18.5"/><path class="cls-5" d="m668,886c9.93,0,18,8.07,18,18s-8.07,18-18,18-18-8.07-18-18,8.07-18,18-18m0-1c-10.49,0-19,8.51-19,19s8.51,19,19,19,19-8.51,19-19-8.51-19-19-19h0Z"/><circle class="cls-8" cx="824" cy="904" r="18.5"/><path class="cls-5" d="m824,886c9.93,0,18,8.07,18,18s-8.07,18-18,18-18-8.07-18-18,8.07-18,18-18m0-1c-10.49,0-19,8.51-19,19s8.51,19,19,19,19-8.51,19-19-8.51-19-19-19h0Z"/><text class="cls-1" transform="translate(370.89 914.19)"><tspan x="0" y="0">Photoshop</tspan></text><circle class="cls-6" cx="618" cy="966" r="18.5"/><path class="cls-5" d="m618,948c9.93,0,18,8.07,18,18s-8.07,18-18,18-18-8.07-18-18,8.07-18,18-18m0-1c-10.49,0-19,8.51-19,19s8.51,19,19,19,19-8.51,19-19-8.51-19-19-19h0Z"/><circle class="cls-6" cx="774" cy="966" r="18.5"/><path class="cls-5" d="m774,948c9.93,0,18,8.07,18,18s-8.07,18-18,18-18-8.07-18-18,8.07-18,18-18m0-1c-10.49,0-19,8.51-19,19s8.51,19,19,19,19-8.51,19-19-8.51-19-19-19h0Z"/><circle class="cls-6" cx="722" cy="966" r="18.5"/><path class="cls-5" d="m722,948c9.93,0,18,8.07,18,18s-8.07,18-18,18-18-8.07-18-18,8.07-18,18-18m0-1c-10.49,0-19,8.51-19,19s8.51,19,19,19,19-8.51,19-19-8.51-19-19-19h0Z"/><circle class="cls-6" cx="670" cy="966" r="18.5"/><path class="cls-5" d="m670,948c9.93,0,18,8.07,18,18s-8.07,18-18,18-18-8.07-18-18,8.07-18,18-18m0-1c-10.49,0-19,8.51-19,19s8.51,19,19,19,19-8.51,19-19-8.51-19-19-19h0Z"/><circle class="cls-8" cx="826" cy="966" r="18.5"/><path class="cls-5" d="m826,948c9.93,0,18,8.07,18,18s-8.07,18-18,18-18-8.07-18-18,8.07-18,18-18m0-1c-10.49,0-19,8.51-19,19s8.51,19,19,19,19-8.51,19-19-8.51-19-19-19h0Z"/><text class="cls-1" transform="translate(372.89 976.19)"><tspan x="0" y="0">Premiere pro</tspan></text><circle class="cls-6" cx="1323" cy="839" r="18.5"/><path class="cls-5" d="m1323,821c9.93,0,18,8.07,18,18s-8.07,18-18,18-18-8.07-18-18,8.07-18,18-18m0-1c-10.49,0-19,8.51-19,19s8.51,19,19,19,19-8.51,19-19-8.51-19-19-19h0Z"/><circle class="cls-6" cx="1479" cy="839" r="18.5"/><path class="cls-5" d="m1479,821c9.93,0,18,8.07,18,18s-8.07,18-18,18-18-8.07-18-18,8.07-18,18-18m0-1c-10.49,0-19,8.51-19,19s8.51,19,19,19,19-8.51,19-19-8.51-19-19-19h0Z"/><circle class="cls-6" cx="1427" cy="839" r="18.5"/><path class="cls-5" d="m1427,821c9.93,0,18,8.07,18,18s-8.07,18-18,18-18-8.07-18-18,8.07-18,18-18m0-1c-10.49,0-19,8.51-19,19s8.51,19,19,19,19-8.51,19-19-8.51-19-19-19h0Z"/><circle class="cls-6" cx="1375" cy="839" r="18.5"/><path class="cls-5" d="m1375,821c9.93,0,18,8.07,18,18s-8.07,18-18,18-18-8.07-18-18,8.07-18,18-18m0-1c-10.49,0-19,8.51-19,19s8.51,19,19,19,19-8.51,19-19-8.51-19-19-19h0Z"/><circle class="cls-8" cx="1531" cy="839" r="18.5"/><path class="cls-5" d="m1531,821c9.93,0,18,8.07,18,18s-8.07,18-18,18-18-8.07-18-18,8.07-18,18-18m0-1c-10.49,0-19,8.51-19,19s8.51,19,19,19,19-8.51,19-19-8.51-19-19-19h0Z"/><text class="cls-1" transform="translate(1077.89 849.19)"><tspan x="0" y="0">Figma </tspan></text><circle class="cls-6" cx="1322" cy="896" r="18.5"/><path class="cls-5" d="m1322,878c9.93,0,18,8.07,18,18s-8.07,18-18,18-18-8.07-18-18,8.07-18,18-18m0-1c-10.49,0-19,8.51-19,19s8.51,19,19,19,19-8.51,19-19-8.51-19-19-19h0Z"/><circle class="cls-8" cx="1478" cy="896" r="18.5"/><path class="cls-5" d="m1478,878c9.93,0,18,8.07,18,18s-8.07,18-18,18-18-8.07-18-18,8.07-18,18-18m0-1c-10.49,0-19,8.51-19,19s8.51,19,19,19,19-8.51,19-19-8.51-19-19-19h0Z"/><circle class="cls-6" cx="1426" cy="896" r="18.5"/><path class="cls-5" d="m1426,878c9.93,0,18,8.07,18,18s-8.07,18-18,18-18-8.07-18-18,8.07-18,18-18m0-1c-10.49,0-19,8.51-19,19s8.51,19,19,19,19-8.51,19-19-8.51-19-19-19h0Z"/><circle class="cls-6" cx="1374" cy="896" r="18.5"/><path class="cls-5" d="m1374,878c9.93,0,18,8.07,18,18s-8.07,18-18,18-18-8.07-18-18,8.07-18,18-18m0-1c-10.49,0-19,8.51-19,19s8.51,19,19,19,19-8.51,19-19-8.51-19-19-19h0Z"/><circle class="cls-8" cx="1530" cy="896" r="18.5"/><path class="cls-5" d="m1530,878c9.93,0,18,8.07,18,18s-8.07,18-18,18-18-8.07-18-18,8.07-18,18-18m0-1c-10.49,0-19,8.51-19,19s8.51,19,19,19,19-8.51,19-19-8.51-19-19-19h0Z"/><text class="cls-1" transform="translate(1076.89 906.19)"><tspan x="0" y="0">HTMl </tspan></text><circle class="cls-6" cx="1323" cy="947" r="18.5"/><path class="cls-5" d="m1323,929c9.93,0,18,8.07,18,18s-8.07,18-18,18-18-8.07-18-18,8.07-18,18-18m0-1c-10.49,0-19,8.51-19,19s8.51,19,19,19,19-8.51,19-19-8.51-19-19-19h0Z"/><circle class="cls-8" cx="1479" cy="947" r="18.5"/><path class="cls-5" d="m1479,929c9.93,0,18,8.07,18,18s-8.07,18-18,18-18-8.07-18-18,8.07-18,18-18m0-1c-10.49,0-19,8.51-19,19s8.51,19,19,19,19-8.51,19-19-8.51-19-19-19h0Z"/><circle class="cls-6" cx="1427" cy="947" r="18.5"/><path class="cls-5" d="m1427,929c9.93,0,18,8.07,18,18s-8.07,18-18,18-18-8.07-18-18,8.07-18,18-18m0-1c-10.49,0-19,8.51-19,19s8.51,19,19,19,19-8.51,19-19-8.51-19-19-19h0Z"/><circle class="cls-6" cx="1375" cy="947" r="18.5"/><path class="cls-5" d="m1375,929c9.93,0,18,8.07,18,18s-8.07,18-18,18-18-8.07-18-18,8.07-18,18-18m0-1c-10.49,0-19,8.51-19,19s8.51,19,19,19,19-8.51,19-19-8.51-19-19-19h0Z"/><circle class="cls-8" cx="1531" cy="947" r="18.5"/><path class="cls-5" d="m1531,929c9.93,0,18,8.07,18,18s-8.07,18-18,18-18-8.07-18-18,8.07-18,18-18m0-1c-10.49,0-19,8.51-19,19s8.51,19,19,19,19-8.51,19-19-8.51-19-19-19h0Z"/><text class="cls-1" transform="translate(1077.89 957.19)"><tspan x="0" y="0">CSS </tspan></text><text class="cls-3" transform="translate(374.95 746.18)"><tspan class="cls-4" x="0" y="0">Professional skills</tspan><tspan class="cls-2" x="376.26" y="0"> </tspan></text><text/><text/><circle class="cls-6" cx="1323" cy="998" r="18.5"/><path class="cls-5" d="m1323,980c9.93,0,18,8.07,18,18s-8.07,18-18,18-18-8.07-18-18,8.07-18,18-18m0-1c-10.49,0-19,8.51-19,19s8.51,19,19,19,19-8.51,19-19-8.51-19-19-19h0Z"/><circle class="cls-8" cx="1374" cy="998" r="18.5"/><path class="cls-5" d="m1374,980c9.93,0,18,8.07,18,18s-8.07,18-18,18-18-8.07-18-18,8.07-18,18-18m0-1c-10.49,0-19,8.51-19,19s8.51,19,19,19,19-8.51,19-19-8.51-19-19-19h0Z"/><circle class="cls-8" cx="1427" cy="998" r="18.5"/><path class="cls-5" d="m1427,980c9.93,0,18,8.07,18,18s-8.07,18-18,18-18-8.07-18-18,8.07-18,18-18m0-1c-10.49,0-19,8.51-19,19s8.51,19,19,19,19-8.51,19-19-8.51-19-19-19h0Z"/><circle class="cls-8" cx="1479" cy="998" r="18.5"/><path class="cls-5" d="m1479,980c9.93,0,18,8.07,18,18s-8.07,18-18,18-18-8.07-18-18,8.07-18,18-18m0-1c-10.49,0-19,8.51-19,19s8.51,19,19,19,19-8.51,19-19-8.51-19-19-19h0Z"/><circle class="cls-8" cx="1530" cy="998" r="18.5"/><path class="cls-5" d="m1530,980c9.93,0,18,8.07,18,18s-8.07,18-18,18-18-8.07-18-18,8.07-18,18-18m0-1c-10.49,0-19,8.51-19,19s8.51,19,19,19,19-8.51,19-19-8.51-19-19-19h0Z"/><text class="cls-1" transform="translate(1078.76 1004.4)"><tspan x="0" y="0">JavaScript </tspan></text></g></svg>