<?xml version="1.0" encoding="UTF-8"?><svg xmlns="http://www.w3.org/2000/svg" width="2067.15" height="768.33" viewBox="0 0 2067.15 768.33"><defs><style>.cls-1{letter-spacing:-.02em;}.cls-2{fill:#29abe2;stroke:#fff;}.cls-2,.cls-3{stroke-miterlimit:10;}.cls-4{fill:#f4b991;}.cls-4,.cls-5,.cls-6,.cls-7,.cls-8,.cls-9,.cls-10{stroke-width:0px;}.cls-5{fill:#45a935;}.cls-6{fill:#2000e9;}.cls-7{fill:#a67c54;}.cls-8{fill:#c09ca8;}.cls-9{fill:#fffaaa;}.cls-10{fill:#0067b8;}.cls-3{font-family:Noteworthy-Light, Noteworthy;font-size:60px;font-weight:300;stroke:#000;stroke-width:2px;}</style></defs><g id="Layer_9"><rect class="cls-2" x="405.67" y="380.31" width="251.46" height="251.46" rx="69.91" ry="69.91"/><text class="cls-3" transform="translate(400.24 362.92)"><tspan x="0" y="0">#0067B8</tspan></text><text class="cls-3" transform="translate(716.06 365.86)"><tspan x="0" y="0">#45A935</tspan></text><text class="cls-3" transform="translate(1018.21 362.92)"><tspan x="0" y="0">#45A935</tspan></text><text class="cls-3" transform="translate(1325.98 362.92)"><tspan x="0" y="0">#45A935</tspan></text><text class="cls-3" transform="translate(1630.75 362.92)"><tspan x="0" y="0">#45A935</tspan></text><text class="cls-3" transform="translate(100.9 700.7)"><tspan x="0" y="0">#45A935</tspan></text><text class="cls-3" transform="translate(400.24 700.7)"><tspan x="0" y="0">#45A935</tspan></text></g><g id="Layer_6"><rect class="cls-5" x="711.94" y="41.23" width="251.46" height="251.46" rx="69.65" ry="69.65"/><rect class="cls-8" x="99.4" y="41.23" width="251.46" height="251.46" rx="69.39" ry="69.39"/><rect class="cls-10" x="405.67" y="41.23" width="251.46" height="251.46" rx="65.3" ry="65.3"/><rect class="cls-7" x="1018.21" y="41.23" width="251.46" height="251.46" rx="69.55" ry="69.55"/><rect class="cls-9" x="1324.48" y="41.23" width="251.46" height="251.46" rx="69.76" ry="69.76"/><rect class="cls-4" x="1630.75" y="41.23" width="251.46" height="251.46" rx="69.49" ry="69.49"/><rect class="cls-6" x="99.4" y="384.01" width="251.46" height="251.46" rx="69.91" ry="69.91"/><text class="cls-3" transform="translate(99.4 360.28)"><tspan x="0" y="0">#C09</tspan><tspan class="cls-1" x="144.82" y="0">C</tspan><tspan x="179.4" y="0">A8</tspan></text></g></svg>