<?xml version="1.0" encoding="UTF-8"?><svg id="Layer_8" xmlns="http://www.w3.org/2000/svg" width="1920" height="1080" viewBox="0 0 1920 1080"><defs><style>.cls-1{stroke:#a6b8c7;stroke-width:5px;}.cls-1,.cls-2{fill:none;stroke-miterlimit:10;}.cls-3{fill:#c19da9;}.cls-3,.cls-4{stroke-width:0px;}.cls-4{fill:#f1f2f6;}.cls-2{opacity:.43;stroke:#697e8c;stroke-width:10px;}</style></defs><rect class="cls-4" width="1920" height="664.24"/><rect class="cls-3" y="605.35" width="1920" height="474.65"/><line class="cls-1" y1="74.88" x2="1920" y2="77.19"/><line class="cls-1" x1="140.59" y1="-.26" x2="141.99" y2="75.08"/><line class="cls-1" x1="287.22" y1=".13" x2="288.62" y2="75.47"/><line class="cls-1" x1="433.85" y1="-.26" x2="435.25" y2="75.08"/><line class="cls-1" x1="569.7" y1=".13" x2="571.1" y2="75.47"/><line class="cls-1" x1="722.04" y1="-.07" x2="723.43" y2="75.28"/><line class="cls-1" x1="868.67" y1=".33" x2="870.06" y2="75.67"/><line class="cls-1" x1="1015.3" y1="-.07" x2="1016.69" y2="75.28"/><line class="cls-1" x1="1151.15" y1=".33" x2="1152.54" y2="75.67"/><line class="cls-1" x1="1297.82" y1=".13" x2="1299.21" y2="75.47"/><line class="cls-1" x1="1444.45" y1=".52" x2="1445.85" y2="75.86"/><line class="cls-1" x1="1591.08" y1=".13" x2="1592.48" y2="75.47"/><line class="cls-1" x1="1726.93" y1=".52" x2="1728.33" y2="75.86"/><line class="cls-1" x1="1864.51" y1=".52" x2="1865.9" y2="75.86"/><line class="cls-1" x1="0" y1="151.26" x2="1920" y2="153.57"/><line class="cls-1" x1="65.7" y1="76.03" x2="67.09" y2="151.37"/><line class="cls-1" x1="212.33" y1="76.42" x2="213.72" y2="151.76"/><line class="cls-1" x1="358.96" y1="76.03" x2="360.35" y2="151.37"/><line class="cls-1" x1="494.81" y1="76.42" x2="496.2" y2="151.76"/><line class="cls-1" x1="647.14" y1="76.23" x2="648.53" y2="151.57"/><line class="cls-1" x1="793.77" y1="76.62" x2="795.16" y2="151.96"/><line class="cls-1" x1="940.4" y1="76.23" x2="941.79" y2="151.57"/><line class="cls-1" x1="1076.25" y1="76.62" x2="1077.64" y2="151.96"/><line class="cls-1" x1="1222.92" y1="76.42" x2="1224.32" y2="151.76"/><line class="cls-1" x1="1369.55" y1="76.81" x2="1370.95" y2="152.16"/><line class="cls-1" x1="1516.19" y1="76.42" x2="1517.58" y2="151.76"/><line class="cls-1" x1="1652.04" y1="76.81" x2="1653.43" y2="152.16"/><line class="cls-1" x1="1789.61" y1="76.81" x2="1791" y2="152.16"/><line class="cls-1" y1="226.55" x2="1920" y2="228.86"/><line class="cls-1" x1="140.59" y1="151.42" x2="141.99" y2="226.76"/><line class="cls-1" x1="287.22" y1="151.81" x2="288.62" y2="227.15"/><line class="cls-1" x1="433.85" y1="151.42" x2="435.25" y2="226.76"/><line class="cls-1" x1="569.7" y1="151.81" x2="571.1" y2="227.15"/><line class="cls-1" x1="722.04" y1="151.61" x2="723.43" y2="226.95"/><line class="cls-1" x1="868.67" y1="152" x2="870.06" y2="227.34"/><line class="cls-1" x1="1015.3" y1="151.61" x2="1016.69" y2="226.95"/><line class="cls-1" x1="1151.15" y1="152" x2="1152.54" y2="227.34"/><line class="cls-1" x1="1297.82" y1="151.81" x2="1299.21" y2="227.15"/><line class="cls-1" x1="1444.45" y1="152.2" x2="1445.85" y2="227.54"/><line class="cls-1" x1="1591.08" y1="151.81" x2="1592.48" y2="227.15"/><line class="cls-1" x1="1726.93" y1="152.2" x2="1728.33" y2="227.54"/><line class="cls-1" x1="1864.51" y1="152.2" x2="1865.9" y2="227.54"/><line class="cls-1" x1="0" y1="302.94" x2="1920" y2="305.25"/><line class="cls-1" x1="65.7" y1="227.71" x2="67.09" y2="303.05"/><line class="cls-1" x1="212.33" y1="228.1" x2="213.72" y2="303.44"/><line class="cls-1" x1="358.96" y1="227.71" x2="360.35" y2="303.05"/><line class="cls-1" x1="494.81" y1="228.1" x2="496.2" y2="303.44"/><line class="cls-1" x1="647.14" y1="227.9" x2="648.53" y2="303.24"/><line class="cls-1" x1="793.77" y1="228.29" x2="795.16" y2="303.64"/><line class="cls-1" x1="940.4" y1="227.9" x2="941.79" y2="303.24"/><line class="cls-1" x1="1076.25" y1="228.29" x2="1077.64" y2="303.64"/><line class="cls-1" x1="1222.92" y1="228.1" x2="1224.32" y2="303.44"/><line class="cls-1" x1="1369.55" y1="228.49" x2="1370.95" y2="303.83"/><line class="cls-1" x1="1516.19" y1="228.1" x2="1517.58" y2="303.44"/><line class="cls-1" x1="1652.04" y1="228.49" x2="1653.43" y2="303.83"/><line class="cls-1" x1="1789.61" y1="228.49" x2="1791" y2="303.83"/><line class="cls-1" x1="3.41" y1="376.98" x2="1923.41" y2="379.29"/><line class="cls-1" x1="144" y1="301.85" x2="145.39" y2="377.19"/><line class="cls-1" x1="290.63" y1="302.24" x2="292.02" y2="377.58"/><line class="cls-1" x1="437.26" y1="301.85" x2="438.65" y2="377.19"/><line class="cls-1" x1="573.11" y1="302.24" x2="574.5" y2="377.58"/><line class="cls-1" x1="725.44" y1="302.04" x2="726.83" y2="377.38"/><line class="cls-1" x1="872.07" y1="302.43" x2="873.47" y2="377.77"/><line class="cls-1" x1="1018.7" y1="302.04" x2="1020.1" y2="377.38"/><line class="cls-1" x1="1154.55" y1="302.43" x2="1155.95" y2="377.77"/><line class="cls-1" x1="1301.23" y1="302.24" x2="1302.62" y2="377.58"/><line class="cls-1" x1="1447.86" y1="302.63" x2="1449.25" y2="377.97"/><line class="cls-1" x1="1594.49" y1="302.24" x2="1595.88" y2="377.58"/><line class="cls-1" x1="1730.34" y1="302.63" x2="1731.73" y2="377.97"/><line class="cls-1" x1="1867.92" y1="302.63" x2="1869.31" y2="377.97"/><line class="cls-1" x1="3.41" y1="453.37" x2="1923.41" y2="455.68"/><line class="cls-1" x1="69.1" y1="378.14" x2="70.49" y2="453.48"/><line class="cls-1" x1="215.73" y1="378.53" x2="217.12" y2="453.87"/><line class="cls-1" x1="362.36" y1="378.14" x2="363.75" y2="453.48"/><line class="cls-1" x1="498.21" y1="378.53" x2="499.6" y2="453.87"/><line class="cls-1" x1="650.54" y1="378.33" x2="651.94" y2="453.68"/><line class="cls-1" x1="797.18" y1="378.73" x2="798.57" y2="454.07"/><line class="cls-1" x1="943.81" y1="378.33" x2="945.2" y2="453.68"/><line class="cls-1" x1="1079.66" y1="378.73" x2="1081.05" y2="454.07"/><line class="cls-1" x1="1226.33" y1="378.53" x2="1227.72" y2="453.87"/><line class="cls-1" x1="1372.96" y1="378.92" x2="1374.35" y2="454.26"/><line class="cls-1" x1="1519.59" y1="378.53" x2="1520.98" y2="453.87"/><line class="cls-1" x1="1655.44" y1="378.92" x2="1656.83" y2="454.26"/><line class="cls-1" x1="1793.02" y1="378.92" x2="1794.41" y2="454.26"/><line class="cls-1" x1="3.41" y1="528.66" x2="1923.41" y2="530.97"/><line class="cls-1" x1="144" y1="453.52" x2="145.39" y2="528.86"/><line class="cls-1" x1="290.63" y1="453.91" x2="292.02" y2="529.25"/><line class="cls-1" x1="437.26" y1="453.52" x2="438.65" y2="528.86"/><line class="cls-1" x1="573.11" y1="453.91" x2="574.5" y2="529.25"/><line class="cls-1" x1="725.44" y1="453.72" x2="726.83" y2="529.06"/><line class="cls-1" x1="872.07" y1="454.11" x2="873.47" y2="529.45"/><line class="cls-1" x1="1018.7" y1="453.72" x2="1020.1" y2="529.06"/><line class="cls-1" x1="1154.55" y1="454.11" x2="1155.95" y2="529.45"/><line class="cls-1" x1="1301.23" y1="453.91" x2="1302.62" y2="529.25"/><line class="cls-1" x1="1447.86" y1="454.3" x2="1449.25" y2="529.65"/><line class="cls-1" x1="1594.49" y1="453.91" x2="1595.88" y2="529.25"/><line class="cls-1" x1="1730.34" y1="454.3" x2="1731.73" y2="529.65"/><line class="cls-1" x1="1867.92" y1="454.3" x2="1869.31" y2="529.65"/><line class="cls-1" x1="3.41" y1="605.04" x2="1923.41" y2="607.35"/><line class="cls-1" x1="69.1" y1="529.81" x2="70.49" y2="605.16"/><line class="cls-1" x1="215.73" y1="530.21" x2="217.12" y2="605.55"/><line class="cls-1" x1="362.36" y1="529.81" x2="363.75" y2="605.16"/><line class="cls-1" x1="498.21" y1="530.21" x2="499.6" y2="605.55"/><line class="cls-1" x1="650.54" y1="530.01" x2="651.94" y2="605.35"/><line class="cls-1" x1="797.18" y1="530.4" x2="798.57" y2="605.74"/><line class="cls-1" x1="943.81" y1="530.01" x2="945.2" y2="605.35"/><line class="cls-1" x1="1079.66" y1="530.4" x2="1081.05" y2="605.74"/><line class="cls-1" x1="1226.33" y1="530.21" x2="1227.72" y2="605.55"/><line class="cls-1" x1="1372.96" y1="530.6" x2="1374.35" y2="605.94"/><line class="cls-1" x1="1519.59" y1="530.21" x2="1520.98" y2="605.55"/><line class="cls-1" x1="1655.44" y1="530.6" x2="1656.83" y2="605.94"/><line class="cls-1" x1="1793.02" y1="530.6" x2="1794.41" y2="605.94"/><line class="cls-2" x1="-.64" y1="610.25" x2="1919.36" y2="612.56"/></svg>