<?xml version="1.0" encoding="UTF-8"?><svg id="Layer_9" xmlns="http://www.w3.org/2000/svg" width="1854.95" height="1080.06" viewBox="0 0 1854.95 1080.06"><defs><style>.cls-1{fill:#7c5c42;}.cls-1,.cls-2{stroke-width:0px;}.cls-2{fill:#a67c54;}</style></defs><circle class="cls-2" cx="447.92" cy="548.88" r="181.65"/><circle class="cls-1" cx="342.82" cy="450.17" r="7.1"/><circle class="cls-1" cx="348.97" cy="579.35" r="13.25"/><circle class="cls-1" cx="441.71" cy="511.21" r="8.52"/><circle class="cls-1" cx="459.93" cy="629.75" r="9.7"/><circle class="cls-1" cx="398.65" cy="718" r="5.21"/><circle class="cls-1" cx="290.5" cy="532.25" r="7.78"/><circle class="cls-1" cx="473.83" cy="388.83" r="13.9"/><circle class="cls-1" cx="580.83" cy="492.29" r="15.14"/><circle class="cls-1" cx="509.38" cy="478.56" r="12.78"/><circle class="cls-1" cx="418.76" cy="446.62" r="3.55"/><circle class="cls-1" cx="398.96" cy="399.08" r="10.25"/><circle class="cls-1" cx="563.33" cy="629.04" r="15.62"/><circle class="cls-1" cx="492.17" cy="570.54" r="4.44"/><circle class="cls-1" cx="499.19" cy="703.73" r="7.02"/><circle class="cls-1" cx="371.92" cy="512.4" r="9.7"/><circle class="cls-1" cx="342.82" cy="665" r="7.1"/><circle class="cls-1" cx="577.37" cy="563.59" r="6.95"/><circle class="cls-1" cx="396.05" cy="622.65" r="2.6"/><circle class="cls-1" cx="552.83" cy="414.45" r="5.12"/></svg>