<?xml version="1.0" encoding="UTF-8"?><svg id="Layer_10" xmlns="http://www.w3.org/2000/svg" width="1469.86" height="997.6" viewBox="0 0 1469.86 997.6"><defs><style>.cls-1{fill:#7c5c42;}.cls-1,.cls-2,.cls-3{stroke-width:0px;}.cls-2{fill:#c0a286;}.cls-3{fill:#a67c54;}</style></defs><path class="cls-3" d="m877.12,540.13c3.46,83.87-75.06,181.67-181.65,181.65-96.45-.01-181.65-80.1-181.65-181.65,0-114.29,107.93-179.05,181.65-181.65,14.38-.51,27.01,1.37,37.27,3.83-8.78,13.22-7.2,28.69,1.27,35.86,6.63,5.62,15.64,4.59,18.03,4.24-.17,1.52-1.32,13.82,7.95,22.8,7.4,7.16,18.53,9.42,28.64,5.83.27,1.88,2.91,18.2,18.03,26.51,11.67,6.41,26.24,5.57,37.65-2.12,13.91,18.24,31.28,47.58,32.81,84.69Z"/><circle class="cls-1" cx="590.36" cy="441.42" r="7.1"/><circle class="cls-1" cx="596.51" cy="570.6" r="13.25"/><circle class="cls-1" cx="707.48" cy="621" r="9.7"/><circle class="cls-1" cx="646.2" cy="709.25" r="5.21"/><path class="cls-1" d="m727.19,380.08c0,7.68-6.22,13.9-13.9,13.9s-13.9-6.22-13.9-13.9,6.22-13.9,13.9-13.9,13.9,6.22,13.9,13.9Z"/><circle class="cls-1" cx="828.38" cy="483.54" r="15.14"/><circle class="cls-1" cx="756.92" cy="469.81" r="12.78"/><circle class="cls-1" cx="666.31" cy="437.87" r="3.55"/><circle class="cls-1" cx="646.51" cy="390.33" r="10.25"/><circle class="cls-1" cx="810.87" cy="620.29" r="15.62"/><circle class="cls-1" cx="739.71" cy="561.79" r="4.44"/><circle class="cls-1" cx="746.74" cy="694.98" r="7.02"/><circle class="cls-1" cx="619.46" cy="503.65" r="9.7"/><circle class="cls-1" cx="590.36" cy="656.25" r="7.1"/><circle class="cls-1" cx="824.92" cy="554.84" r="6.95"/><circle class="cls-1" cx="643.59" cy="613.9" r="2.6"/><path class="cls-2" d="m788.62,431.05c.34,2.06.93,4.59,1.96,7.36,1.52,4.09,3.34,6.93,4.01,7.94,2.18,3.28,4.35,5.4,4.95,5.98,1.61,1.54,4.51,4.02,8.72,6.06,1.33.65,4.14,1.9,7.96,2.71,1.73.37,5.59,1.04,10.51.61,1.1-.1,2.12-.24,3.08-.41,1.46-.26,3.86-.76,6.67-1.82,3.12-1.17,5.74-2.63,7.83-4.04-2.89-1.7-7.33-4-13.08-5.75-8.83-2.7-11.49-1.28-16.44-4.37-6.51-4.06-3.84-7.7-10.88-12.47-6.1-4.14-12.11-4.11-14.3-8.85-.34-.73-1.01-2.5-2.74-4.12-1.32-1.24-2.51-1.7-4.26-2.52-4.84-2.27-4.33-2.83-7.36-4.07-5.39-2.19-6.85-.36-9.02-2.4-2.33-2.19-.72-4.37-3.62-8.05-.97-1.23-2.21-2.13-4.61-4.03-2.02-1.6-2.54-1.74-5.19-3.6-3.76-2.65-5.65-3.98-6.77-5.48-1.35-1.8-.87-2.13-3.17-8.07-1.55-4.01-2.33-6.01-3.6-8.07-1.71-2.76-2.77-3.48-4.47-6.63-1.02-1.89-1.66-3.54-2.05-4.65-.99,1.47-2.18,3.5-3.25,6.05-.57,1.35-1.51,3.65-2.08,6.85-.14.8-.62,3.7-.37,7.56.11,1.68.24,3.55.94,5.89.39,1.3,1.38,4.47,3.97,7.45,2.98,3.42,6.61,4.91,8.28,5.48,5.6,1.9,10.14.51,11.37,3.06.06.13.15.65.33,1.7.51,3.05.68,5.34.77,5.73.4,1.69,1.31,5.39,4.1,9.38,1.02,1.46,3.44,4.61,7.63,7.22.99.62,3.67,2.19,7.5,3.18,1.08.28,3.41.81,6.45.87,4.18.08,7.7-.77,10.25-1.67Z"/></svg>