<?xml version="1.0" encoding="UTF-8"?><svg id="Layer_6" xmlns="http://www.w3.org/2000/svg" width="180" height="229.21" viewBox="0 0 180 229.21"><defs><style>.cls-1{fill:#fff;}.cls-1,.cls-2,.cls-3,.cls-4,.cls-5{stroke:#000;stroke-miterlimit:10;}.cls-2{fill:#f2d6bd;}.cls-3{fill:#f1b97e;}.cls-4{fill:#afacaa;}.cls-5{fill:none;}</style></defs><path class="cls-4" d="m12.6,84.79c5.73-5.49,13.59-11.93,23.85-17.6,33.56-18.52,82.32-22.89,115.74.78,7.68,5.44,12.83,11.14,15.45,14.27-.47,4.75-1.84,11.8-6.26,18.77-8.13,12.83-21.32,17.15-33.43,20.92-27.18,8.46-49.25,4.6-73.32.39-10.92-1.91-22.42-4.84-32.45-13.88-2.98-2.68-5.1-5.26-6.45-7.04-1.04-5.54-2.09-11.08-3.13-16.62Z"/><path class="cls-3" d="m26.88,95.15c-1.98.43-2.92.68-3.13,1.37-.18.58.2,1.37,2.15,3.13,2.11,1.91,3.82,3.45,7.23,4.89,3.18,1.34,6.96,2.94,8.21,1.56,1.49-1.64-1.45-6.52-2.35-8.02-1.3-2.16-1.95-3.25-3.32-3.91-1.29-.62-3.81-.1-8.8.98Z"/><path class="cls-3" d="m81.91,51.25c-9.97,3-12.93,18.41-14.43,26.2-2.81,14.64.37,26.87,2.58,33.32,4.22,15.46,20.48,24.46,35.47,20.05,14.51-4.27,23.31-19.78,19.34-34.78-1.63-7.03-5.64-19.64-16.4-30.77-5.38-5.57-16.49-17.06-26.57-14.03Z"/><path class="cls-2" d="m75.17,37.57c-9.99-2.93-20.89,8.37-26.39,14.08-10.35,10.73-14.36,22.71-16.03,29.33-1.18,4.7-1.81,8.25-1.06,12.94,1.57,9.76,9.04,20.23,19.83,23.23,15.33,4.26,31.3-7.89,35.19-18.57,2.47-6.78,6-19.54,3.06-34.74-1.47-7.6-4.5-23.3-14.6-26.26Z"/><path class="cls-2" d="m107.51,46.17c-8.23,4.59-7.84,18.79-7.64,25.97.37,13.48,5.56,23.67,8.78,28.95,6.75,12.85,22.87,17.63,35.26,10.81,12-6.6,16.75-22.02,10.32-34.51-2.81-5.9-8.82-16.26-20.5-24-5.84-3.87-17.9-11.87-26.22-7.22Z"/><path class="cls-3" d="m58.53,77.92c-7.07,7.64-1.82,22.43.84,29.9,4.99,14.04,13.93,22.98,19.11,27.42,11.48,11.19,30.05,10.72,40.74-.68,10.35-11.03,10.08-28.86-.94-39.78-4.97-5.23-14.82-14.07-29.73-18.22-7.46-2.07-22.86-6.36-30.01,1.36Z"/><path class="cls-1" d="m12.74,85.51c-.77,10.91-.25,19.94.45,26.46.99,9.22,1.59,14.37,4.5,20.33,4.75,9.74,12.44,15,16.03,17.4,7.29,4.86,16.16,8.03,57.87,8.21,43.13.19,51.63-3.54,58.26-9.47,8.43-7.54,12.71-18.18,12.9-18.68,2.7-6.9,3.14-13.1,3.91-25.22.53-8.41.51-15.37.39-20.14-4.74,5.15-31.1,32.83-74.29,34.21-46.3,1.48-75.58-28.41-80.02-33.1Z"/><path class="cls-5" d="m19.64,105.71c7.77,5.22,54.62,35.7,105.58,18.82,14.36-4.75,25.56-12.11,33.81-19.01"/></svg>