<?xml version="1.0" encoding="UTF-8"?><svg id="Layer_9" xmlns="http://www.w3.org/2000/svg" width="827" height="1267" viewBox="0 0 826.86 1266.48"><defs><style>.cls-1{fill:none;stroke:#a67c54;stroke-miterlimit:10;stroke-width:8px;}.cls-2{fill:#a67c54;stroke-width:0px;}</style></defs><path class="cls-2" d="m371.4,59.1c-3.57,1.27-19.47,6.93-27.05,22.54-6.67,13.73-3.22,27.6,0,40.57,4.29,17.28,9.6,18.16,12.02,34.56,2.19,14.83-1.41,19.08,3.01,25.55,7.73,11.32,29.69,14.24,37.57,6.01,5.09-5.31.1-10.87,3.01-28.55,2.14-13.01,5.19-12.1,10.52-33.06,2.38-9.36,3.77-17.41,4.51-25.55.85-9.45,1.28-14.17,0-19.53-.61-2.58-4.36-18.31-18.03-24.04-9.79-4.11-19.17-.77-25.55,1.5Z"/><path class="cls-1" d="m333.83,221.39c-4.08,1.6-12.83,5.66-19.94,14.88-9.23,11.96-9.67,24.79-9.64,28.92,1.85,228.83,3.69,457.67,5.54,686.5,2.04,4.8,5.98,12.17,13.52,18.03,1.92,1.49,7.47,5.53,31.56,10.52,8.99,1.86,18.49,3.84,31.56,4.51,7.29.37,16.66.8,28.82-.99,10.92-1.61,20.41-3.11,30.34-9.63,6.17-4.05,10.37-8.64,12.97-11.92.99-38.39,17.16-680.33,1.5-715.28-7.4-16.52-19.53-24.04-19.53-24.04-7.28-4.51-13.97-5.57-27.05-7.51-19.49-2.89-34.86-1.95-40.57-1.5-10.15.8-23.66,2.74-39.07,7.51Z"/><path class="cls-2" d="m386.43,1007.29c-7.79-.04-14.1-.86-18.03-1.5,2.04,6.24,4.27,15.78,3.01,27.05-1.4,12.52-6.08,18.02-9.02,30.05-2.8,11.48-1.49,20.19,0,36.06,1.45,15.49,2.28,23.34,7.51,28.55,7.43,7.4,18.29,7.49,21.04,7.51,3.42.03,12.66.1,19.53-6.01,5.63-5.01,6.83-13.42,9.02-30.05,1.52-11.59,2.36-18.02,1.5-27.05-1.46-15.27-5.66-15.65-7.51-30.05-2.6-20.28,4.43-29.74-1.5-34.56-4.16-3.38-9.07.09-25.55,0Z"/></svg>