<?xml version="1.0" encoding="UTF-8"?><svg id="Layer_9" xmlns="http://www.w3.org/2000/svg" width="775.64" height="1308.65" viewBox="0 0 775.64 1308.65"><defs><style>.cls-1{fill:#a67c54;stroke-width:0px;}</style></defs><path class="cls-1" d="m334.85,243.25c-4.08,1.6-12.83,5.66-19.94,14.88-9.23,11.96-9.67,24.79-9.64,28.92,1.85,228.83,3.69,457.67,5.54,686.5,2.04,4.8,5.98,12.17,13.52,18.03,1.92,1.49,7.47,5.53,31.56,10.52,8.99,1.86,18.49,3.84,31.56,4.51,7.29.37,16.66.8,28.82-.99,10.92-1.61,20.41-3.11,30.34-9.63,6.17-4.05,10.37-8.64,12.97-11.92.99-38.39,17.16-680.33,1.5-715.28-7.4-16.52-19.53-24.04-19.53-24.04-7.28-4.51-13.97-5.57-27.05-7.51-19.49-2.89-34.86-1.95-40.57-1.5-10.15.8-23.66,2.74-39.07,7.51Z"/></svg>