<?xml version="1.0" encoding="UTF-8"?><svg id="Layer_5" xmlns="http://www.w3.org/2000/svg" width="180" height="230" viewBox="0 0 180 230"><defs><style>.cls-1{font-family:MyriadPro-Regular, 'Myriad Pro';font-size:21.78px;stroke:#000;}.cls-1,.cls-2{fill:#f1b97e;opacity:.34;}.cls-1,.cls-3,.cls-4{stroke-miterlimit:10;}.cls-2{stroke-width:0px;}.cls-3{fill:#ffe4b4;}.cls-3,.cls-4{stroke:#f1b97e;}.cls-4{fill:none;}</style></defs><path class="cls-3" d="m24.57,23.35c-.51,2.55.7,5.25.83,5.51,1.66,3.58,4.5,3.9,7.17,6.34,5.52,5.05,4.97,14.33,4.68,19.29-.34,5.85-1.95,10.16-2.48,11.57-4.65,12.45-15.74,42.18-19.78,62.01-.98,4.82-2.2,10.78-2.54,18.74-.16,3.79-.03,5.8-.28,12.13-.23,5.96-.51,8.22-.83,13.23-.83,13.15-1.28,20.29.28,28.94.91,5.05,2.25,9.18,3.37,12.13,36.08.66,72.16,1.32,108.25,1.97,6.06-2.68,12.13-5.36,18.19-8.04,9.74-4.87,19.47-9.74,29.21-14.61-8.29-30.51-13.6-56.79-17.09-77.44,0,0-7.27-43.06-2.76-64.49.79-3.74,1.21-7.55,1.93-11.3,1.45-7.55,2.22-9.8,1.1-12.95-1.35-3.81-4.4-5.98-6.06-7.17-3.65-2.6-6.93-3.14-11.85-4.13-14.21-2.88-11.83-3.45-19.02-4.41-5.05-.67-10.05-.64-19.84-.55-7.46.07-11.6.26-20.12.55-22.92.79-28.07.62-36.93,3.03-12.83,3.5-14.98,7.39-15.43,9.65Z"/><path class="cls-2" d="m121.81,26.23c.39,3.51,2.98,7.5,7.32,8.17,3.51.54,7.11-1.25,9.01-4.51,1.06.23,4.96,1.2,7.32,4.79,2.68,4.08,2.28,9.86-1.13,14.37-5.85,19.15-11.27,41.02-15.21,65.35-6.2,38.27-7.13,72.51-5.9,100.8,15.8-7.55,31.6-15.09,47.4-22.64-3.45-11.93-12.46-44.25-17.09-77.44-1.55-11.11-2.22-21.26-3.57-41.56-.65-9.81-.74-13.52.08-18.55.82-4.99,2.26-9.65,3.58-19.2.87-6.34.73-7.85.18-9.43-2.58-7.41-11.79-9.9-13.48-10.36-3.11-.84-9.5-2.57-14.3,1.2-.58.45-4.8,3.88-4.23,9.01Z"/><line class="cls-4" x1="40.68" y1="36.66" x2="125.19" y2="36.94"/><ellipse class="cls-4" cx="66.99" cy="147.48" rx="26.59" ry="38.93" transform="translate(-86.47 199.32) rotate(-84.24)"/><text class="cls-1" transform="translate(47.46 154.56) rotate(3)"><tspan x="0" y="0">MEL</tspan></text></svg>