<?xml version="1.0" encoding="UTF-8"?><svg id="Layer_4" xmlns="http://www.w3.org/2000/svg" width="210" height="230" viewBox="0 0 210 230"><defs><style>.cls-1{stroke-width:0px;}.cls-1,.cls-2{fill:none;}.cls-3{font-family:MyriadPro-Regular, 'Myriad Pro';font-size:14.72px;}.cls-3,.cls-4{fill:#91b6f4;}.cls-3,.cls-4,.cls-5,.cls-2{stroke:#5d93e2;stroke-miterlimit:10;}.cls-6{letter-spacing:.06em;}.cls-5{fill:#d4e5ff;}.cls-7{letter-spacing:.05em;}</style></defs><path class="cls-5" d="m65.77,21.99c20.39-2.13,40.79-4.27,61.18-6.4,1.1,6.89,2.19,13.78,3.29,20.66,3.76,7.91,7.51,15.81,11.27,23.72,3.37,48.45,6.73,96.9,10.1,145.34-5.24,3.3-10.49,6.6-15.73,9.9h-69.74c-2.58-49.01-5.17-98.02-7.75-147.02l9.9-27.43c-.84-6.26-1.68-12.51-2.52-18.77Z"/><path class="cls-4" d="m123.63,65.01c2.2-9.59,4.41-19.18,6.61-28.76,3.76,7.91,7.51,15.81,11.27,23.72,3.37,48.45,6.73,96.9,10.1,145.34-5.24,3.3-10.49,6.6-15.73,9.9-4.08-50.06-8.16-100.13-12.24-150.19Z"/><line class="cls-2" x1="123.63" y1="65.01" x2="141.51" y2="59.96"/><line class="cls-1" x1="63.38" y1="46.96" x2="63.38" y2="46.96"/><line class="cls-2" x1="130.24" y1="36.25" x2="68.29" y2="40.75"/><line class="cls-2" x1="123.63" y1="65.01" x2="130.24" y2="36.25"/><line class="cls-2" x1="58.39" y1="68.18" x2="123.63" y2="65.01"/><line class="cls-2" x1="135.88" y1="215.2" x2="123.63" y2="65.01"/><ellipse class="cls-2" cx="95.29" cy="137.68" rx="25.61" ry="19.71"/><text class="cls-3" transform="translate(74.92 144.14)"><tspan class="cls-7" x="0" y="0">M</tspan><tspan class="cls-6" x="12.53" y="0">ÆLK</tspan></text></svg>