<?xml version="1.0" encoding="UTF-8"?><svg id="Layer_2" xmlns="http://www.w3.org/2000/svg" width="600" height="930" viewBox="0 0 600 930"><defs><style>.cls-1{fill:#eb7b8c;}.cls-1,.cls-2,.cls-3,.cls-4,.cls-5,.cls-6,.cls-7,.cls-8,.cls-9,.cls-10,.cls-11,.cls-12,.cls-13,.cls-14,.cls-15,.cls-16,.cls-17,.cls-18,.cls-19,.cls-20,.cls-21,.cls-22,.cls-23,.cls-24,.cls-25{stroke:#000;stroke-miterlimit:10;}.cls-1,.cls-2,.cls-3,.cls-5,.cls-6,.cls-7,.cls-8,.cls-9{stroke-width:2px;}.cls-2,.cls-4,.cls-26{fill:#fff;}.cls-3{fill:#fbb39c;}.cls-4{stroke-width:4px;}.cls-5{fill:#b999a4;}.cls-6{fill:#d3be25;}.cls-7{fill:#c09ca8;}.cls-8,.cls-25{fill:#f7b37f;}.cls-10{fill:#232b36;}.cls-10,.cls-11,.cls-12,.cls-13,.cls-14,.cls-15,.cls-16,.cls-17,.cls-18,.cls-19,.cls-20,.cls-21,.cls-22,.cls-23,.cls-24,.cls-25{stroke-width:3px;}.cls-11{fill:#e2df88;}.cls-12{fill:#c2ad92;}.cls-13{fill:#876c4d;}.cls-14{fill:#45a935;}.cls-15{fill:#4f575c;}.cls-16{fill:#850923;}.cls-17{fill:#fecf1f;}.cls-18{fill:#69bc3a;}.cls-19{fill:#0067b8;}.cls-27,.cls-26,.cls-28,.cls-29,.cls-30{stroke-width:0px;}.cls-20{fill:#efb68f;}.cls-21{fill:#ebb975;}.cls-22{fill:#e2edff;}.cls-23{fill:#fffaaf;}.cls-24{fill:#f8b47b;}.cls-28{fill:#022d52;}.cls-29{fill:#021b2d;}.cls-30{fill:#010101;}</style></defs><path class="cls-17" d="m390.6,165.59c14.8,3.81,23.26,8.43,27.54,11.02,9.43,5.69,19.6,11.87,23.61,23.61,3.38,9.9.74,19.57-.79,25.18-2.69,9.89-6.3,12.1-10.23,25.97-3.88,13.69-1.75,16.41-.79,17.31,3.44,3.24,10.6.75,12.59,0-.74,3.93-2.4,8.59-6.3,11.8-5.16,4.26-11.8,3.96-13.38,3.93-27.84-.37-147.1,64.31-182.57,30.69-6.32-5.99-21.69-26.19-30.33-38.14-2.56-3.54-4.61-6.46-5.87-8.29,3.6-11.2,9.77-26.16,20.64-41.83,12.37-17.83,25.43-28.8,30.94-33.17,12.28-9.72,23.64-15.62,30.87-18.92,5.41-2.47,21.06-9.24,42.88-12.33,28.95-4.1,51.57.7,61.17,3.17Z"/><path class="cls-4" d="m156.88,222.25c3.79,9.83,19.84,8.63,35.41,26.76,6.27,7.3,9.81,14.65,11.8,19.67,3.95-12.4,19.38-55.58,64.53-84.2,55.05-34.89,112.09-21.4,121.97-18.89,1.05-15.48,2.1-30.95,3.15-46.43-18.65-7.65-54.85-19.03-97.58-10.23-35.01,7.21-55.6,24.21-96.79,58.23-19.69,16.26-48.22,40.22-42.49,55.08Z"/><path class="cls-4" d="m123.83,238.77c-16.88-10.12-18.53-35.78-11.02-52.72,7.47-16.86,23.35-23.56,27.54-25.18,2.01-5.89,10.1-27.34,33.05-40.92,18.88-11.17,37.21-10.74,44.07-10.23,2.37-4.35,19.93-35.3,57.45-42.49,30.14-5.78,53.39,7.57,59.02,11.02,34.93-15.6,67.69-12.41,80.27,4.72,5.77,7.86,9.95,22.26,3.93,33.84-6.41,12.33-21.12,15.15-28.33,16.53-20.5,3.92-37.32-5.07-43.28-8.66-6.47,6.42-17.62,15.77-33.84,22.03-27.45,10.59-51.94,5.61-61.38,3.15-4.38,6.15-11.9,15.11-23.61,22.82-15.76,10.38-31.08,13.24-39.35,14.16.15,3.32.85,26.71-17.31,42.49-10.49,9.12-31.16,19.06-47.22,9.44Z"/><path class="cls-6" d="m202.52,318.25c4.6-23.6,196.24,3.57,212.39,25.2.74.99,4.66,6.72,11.1,7.86.68.12,8.46,1.37,11.8-3.93,2.8-4.44.2-9.83,0-10.23,8.31,1.05,15.18,6.99,17.31,14.95,2.54,9.47-2.71,17.75-7.08,21.25-3.53,2.83-7.92,4.01-7.92,4.01-1.86.5-3.48.67-4.67.72,1.08,1.15,5.55,5.64,11.8,5.51,7.66-.16,15.06-7.2,16.53-17.31,1.2,4.18,2.91,12.32.79,22.03-.71,3.26-4.48,20.42-20.46,28.33-12.27,6.07-24.6,3.15-28.66,1.95-2.2-.65-3.97-1.39-5.18-1.95,1.84,3.93,3.67,7.87,5.51,11.8-4.95-1.4-10.57-3.4-16.53-6.3-11.49-5.58-20.02-12.43-25.87-18.03-.68-.65-.56-.55-.89-.86-9.17-8.5-21.31-8.61-26.79-8.79-13-.42-38.16-2.82-71.83-5.64-20.64,2.97-41.28,5.95-61.92,8.92-2.06,4.34-6.66,12.46-15.74,18.89-3.23,2.29-17.85,12.64-35.41,7.87-3.13-.85-13.3-4.07-20.46-14.16-4.38-6.18-5.78-12.33-6.3-15.74,2.18,1.95,7.84,6.5,16.53,7.87,9.68,1.52,17.14-1.86,19.67-3.15-5.5-1.32-18.41-5.29-27.54-17.31-3.43-4.51-11.93-15.7-7.87-26.76,1.95-5.3,6.03-8.54,8.66-10.23.14.78,1.74,9.11,9.44,12.59,4.94,2.23,9.54,1.19,11.02.79-7.4-5.38-11.11-14.32-9.44-22.82,2.23-11.36,12.9-16,14.16-16.53,5.29-2.19,10.11-1.91,12.59-1.57-4.63,4.97-5.34,11.68-2.36,15.74,3.16,4.29,9.26,3.98,10.23,3.93,4.9-.25,8.88-3.14,11.02-6.3,3.35-4.93,1.84-9.94,2.36-12.59Z"/><path class="cls-24" d="m71.89,528.36c-10.18,5.73-10.25,21.95-10.23,24.39,6-2.64,14.56-5.65,25.18-7.08,10.15-1.37,18.85-.86,25.18,0,8.5-2.37,10.43-4.4,10.45-5.88.04-3.98-13.71-7.04-25.86-9.74-13.25-2.94-19.98-4.36-24.72-1.69Z"/><path class="cls-24" d="m449.62,532.29c-.57,1.93.18,4.48,3.15,7.87,4.6.54,11.83,1.61,20.46,3.93,18.25,4.91,26.6,11.05,29.9,7.87,3.01-2.91.39-12.23-4.72-18.1-13.28-15.24-46.17-10.38-48.79-1.57Z"/><path class="cls-19" d="m211.18,743.98c-.76,2.08-1.3,9.78-2.36,25.18-1.84,26.66-.38,26.8-2.36,35.41-4.61,20.05-13.58,23.79-10.23,32.26,3.53,8.92,14.9,8.46,21.25,21.25,2.34,4.71,2.95,9.13,3.15,11.8,8.19.18,14.9-.29,19.67-.79,3.65-.38,7.94-1.04,16.53-2.36,7.51-1.16,10.79-1.76,16.53-2.36,4.3-.45,7.84-.67,10.23-.79-1.66-20.03-2.22-37.15-2.36-50.36-.28-26.59,1.06-45.45,2.12-59.92,1.48-20.25,2.98-40.73,5.75-40.81,2.38-.07,4.81,14.96,8.3,36.62,1.9,11.77,2.97,20.73,3.5,25.55,1.55,13.87,2.33,20.95,2.36,30.69.03,11.49-1.02,19.9-2.36,30.69-1.05,8.44-2.73,19.45-5.51,32.26,6.48.9,15.05,1.87,25.18,2.36,16.07.78,19.2-.44,21.25-1.57,7.18-3.98,4.67-8.84,14.95-20.46,5.46-6.17,10.17-11.5,18.1-14.16,6.18-2.08,10.32-1.19,11.8-3.93,1.97-3.64-2.7-10.02-7.08-14.95-.79-12.45-1.57-24.9-2.36-37.35,1.51-8.65,1.73-19.23-3.14-29.09-23.93-48.49-150.69-38.48-162.9-5.17Z"/><path class="cls-15" d="m196.23,836.83c-6.5.35-15.51,1.3-25.97,3.93-7.9,1.99-14.52,3.66-22.03,7.87-5.34,2.99-16.78,9.4-23.61,22.82-8.25,16.22-4.45,32.27-3.15,36.99,5.18.97,13.02,2.25,22.63,3.05,12.79,1.06,30.39,1.4,73.42-5.15,13.81-2.1,32.04-5.19,53.46-9.7.73-4.65,1.22-10.54.79-17.31-.36-5.61-1.28-10.5-2.3-14.5-7.25,1.43-15.19,2.68-23.76,3.59-8.99.95-17.39,1.38-25.09,1.47-.7-4.01-2.38-10.6-6.91-17.46-5.96-9.03-13.63-13.62-17.48-15.59Z"/><path class="cls-23" d="m220.62,869.88c1.47,7.98,2.95,15.97,4.42,23.95,7.84-.59,16.65-1.7,26.18-3.68,7.58-1.58,14.51-3.47,20.71-5.46.58-1.59,1.41-4.53,1.02-8.2-.53-5.02-3.02-8.41-4.12-9.76-7.18,1.17-13.24,2.06-17.79,2.7-9.75,1.37-12.61,1.59-15.59,1.64-6.24.1-11.37-.57-14.83-1.19Z"/><path class="cls-16" d="m256.07,389.9c-11.49,2-23,4.04-34.54,6.11-3.19.57-6.37,1.15-9.56,1.72-2.1,4.37-6.71,12.39-15.74,18.89-3.43,2.47-12.22,8.61-24.73,8.98-4.44.13-8.13-.5-10.68-1.11-4.12,3.09-9.66,7.4-15.99,12.79-24.53,20.91-39.78,40.12-43.41,44.77-8.92,11.41-19.56,26.82-29.53,46.32,5.7-.61,14.48-.86,24.72,1.69,11.98,2.99,20.57,8.47,25.44,12.14,4.51-7.93,10.47-17.02,18.3-26.42,9.57-11.49,19.26-20.26,27.54-26.76,10.67-1.9,19.14-4.71,25.18-7.08,7.82-3.08,14.26-6.51,21.25-10.23,5.21-2.77,9.5-5.25,12.59-7.08-.5,2.65-1.15,8.22,1.44,14.22.98,2.27,2.19,4.07,3.29,5.43,49.31-1.83,98.62-3.65,147.93-5.48.89-2,1.85-4.72,2.33-8.03.77-5.32-.03-9.74-.76-12.43,8.78,5.1,16.35,9.01,22.03,11.8,15.85,7.79,22.38,9.54,25.18,10.23,6.82,1.67,12.63,2.19,16.53,2.36-1.37,5.31-2.67,12.78-2.25,21.71.58,12.41,4.23,22.06,6.98,27.87,6.84-1.12,15.38-1.95,25.18-1.57,9.18.35,17.15,1.66,23.61,3.15.96-5.82,2.05-14.21,2.36-24.39.33-10.99.53-17.46-1.57-25.97-3.12-12.63-9.17-21.13-11.02-23.61-3.58-4.8-7.98-9.23-23.61-19.67-8.21-5.49-19.37-12.53-33.16-20.07-7.57-2.49-15.14-4.98-22.72-7.47,2.36,5.25,4.72,10.49,7.08,15.74-7.32-2.09-16.6-5.61-26.31-11.74-4.93-3.11-9.13-6.36-12.64-9.43-40.26-5.78-80.51-11.57-120.77-17.35Z"/><path class="cls-22" d="m258.41,407.27c-2.01,18.91-1.72,31.43-.8,40.03.36,3.41,1.34,11.02-2.36,18.89-.83,1.76-2.59,5.41-6.3,8.66-7.17,6.27-13.75,4.13-16.53,7.87-2.27,3.05-1.85,9.83,9.44,25.97-6.75,13.62-11.01,24.83-13.38,31.48-19.63,55.19-21.51,114.17-31.48,150.3-1.18,4.29-3.2,11.49-7.08,20.46-3.54,8.17-7.45,15.1-11.8,22.82-3.14,5.57-5.89,10.14-7.87,13.38,4.26-.71,10.5-1.64,18.1-2.36,10.05-.95,15.62-1.48,22.82-.79,5.59.54,10.55,1.93,20.46,4.72,16.89,4.75,16.96,6.22,24.39,7.08,10.41,1.21,19.23-.63,23.61-1.57,9.68-2.09,11.15-4.28,20.46-5.51,3.45-.45,9.71-1.23,17.31,0,11.42,1.85,11.7,5.94,22.03,7.87,12.02,2.24,22.27-1.31,25.18-2.36,6.65-2.39,5.78-3.75,16.53-8.66,6.21-2.83,11.07-4.46,18.89-7.08,11.85-3.97,16.93-2.4,18.1-5.51,1.12-3-2.95-5.06-8.66-14.95-3.85-6.69-5.92-12.56-7.87-18.1,0,0-2.26-6.42-3.93-13.38-6.12-25.39-21.07-126.86-23.61-142.43-.52-3.19-1.61-9.45-3.93-17.31-1.71-5.79-3.5-10.41-4.72-13.38,3.27-4.4,7.21-10.7,10.23-18.89,2.18-5.92,3.33-11.32,3.93-15.74-2.44.17-8.82.28-14.16-3.93-2.33-1.84-5.13-5.03-7.08-12.59-4-15.52.21-31.53,2.77-39.35-6.26,4.31-12.52,8.61-18.79,12.92.88,4.35,1.76,8.7,2.64,13.05-.92-.45-8.97-4.18-16.53,0-3.45,1.91-5.37,4.69-6.3,6.3-1.54-7.12-7.74-12.32-14.95-12.59-7.06-.27-13.53,4.24-15.74,11.02-.25-.89-1.44-4.85-5.41-7.15-5.64-3.26-11.57-.12-11.9.07.26-7.38.53-14.77.79-22.15-5.5-5.7-11.01-11.4-16.51-17.09Z"/><path class="cls-25" d="m289.26,392.89c1.59-7.41,14.83-10.02,17.32-10.51,13.95-2.75,32.68,2.19,34.18,11.17,1.4,8.39-12.13,20.65-26.01,20.51-13.96-.14-27.29-12.83-25.5-21.17Z"/><path class="cls-11" d="m252.89,394.58c-1.53,5.76,4.23,11.71,15.74,23.61,6.32,6.53,12.14,11.49,16.53,14.95,2.31-3.52,6.52-8.89,13.38-13.38,4.39-2.87,8.58-4.53,11.8-5.51-9.16-4.98-13.09-10.56-14.95-14.95-1.53-3.6-1.48-6-4.02-8.92-4.62-5.32-12.09-5.79-14.63-5.95-8.56-.54-21.84,2.59-23.84,10.14Z"/><path class="cls-11" d="m377.11,404.38c.63,5.92-5.97,10.92-19.16,20.93-7.24,5.49-13.76,9.5-18.62,12.25-1.75-3.83-5.08-9.79-11.18-15.26-3.9-3.51-7.78-5.78-10.82-7.25,9.81-3.53,14.55-8.44,17.06-12.49,2.06-3.33,2.38-5.7,5.33-8.2,5.38-4.55,12.83-3.87,15.37-3.64,8.54.78,21.19,5.9,22.01,13.67Z"/><path class="cls-20" d="m421.23,286.42c.34-5.12-3.25-9.81-7.02-12.24-4.31-2.77-8.74-2.51-10.23-2.36,2.9-7.51,4.14-14.09,4.72-18.89.76-6.34,1.62-13.43-.79-22.03-2.09-7.48-5.78-13-8.66-16.53-14.54,2.76-26.71,3.66-35.41,3.93-13,.41-19.64.56-26.76-2.36-14.83-6.08-21.47-19.78-22.82-18.89-.76.5.83,5.12,10.23,22.03-4.79-.92-11.19-2.69-18.1-6.3-4.88-2.54-8.8-5.36-11.8-7.87-1.65,2.83-3.53,6.66-4.95,11.42-1.51,5.07-2.01,9.57-2.14,12.98-1.74-2.16-4.14-5.64-5.84-10.45-1.66-4.7-2.01-8.84-2.03-11.59-10.12,18.2-18.58,32.28-24.39,41.71-6.91,11.21-11.86,18.74-14.95,30.69-2.74,10.58-2.77,19.81-2.36,25.97-8.53-3.5-13.11-8.11-15.74-11.8-4.31-6.06-4.02-10.55-9.44-14.95-.9-.73-7.91-6.28-13.38-3.93-6.93,2.97-6.39,16.49-6.3,18.89.34,8.55,3.74,14.47,9.44,24.39,3.37,5.87,6.08,9.11,9.44,11.8,2.97,2.39,5.83,3.84,7.87,4.72,1.63,5.29,4.75,12.99,11.02,20.46,5.36,6.38,10.99,9.85,22.03,16.53,6.74,4.07,17.38,10.44,33.05,16.53,13.62,5.29,20.43,7.93,28.33,8.66,7.93.72,18.33-.15,51.15-18.1,31.24-17.08,46.94-25.87,50.36-37.77,1.15-4,4.73-19.39-11.02-41.71,9.18-.15,16.03-6.37,16.47-12.94Z"/><path class="cls-12" d="m195.57,834.28c-4.06-1.4-10.76-3.75-17.44-.6-4.38,2.07-6.81,5.39-7.87,7.08,6.05,1.74,17.45,5.92,27.88,16.18,15.41,15.16,18.4,33.45,19.12,39.4,6.54-1.06,13.08-2.11,19.63-3.17-2.05-6.84-10.29-32.9-25.62-48.56-4.74-4.84-9.79-8.31-15.7-10.34Z"/><path class="cls-10" d="m274.69,883.86c-7.25,2.21-17.23,5-29.27,7.59-28.83,6.2-51.46,7.38-64.82,8.02-22.5,1.07-38.13.08-42.49-.22-7.97-.55-14.71-1.3-19.73-1.95-3.16.74-5.34,3.61-5.2,6.72.13,2.83,2.15,5.31,4.99,6.07,15.3,2.39,28.18,3.42,37.5,3.9,45.2,2.34,79.54-4.39,93-7.37,11.42-2.53,20.7-5.22,26.88-7.15,4.06-1.1,6.63-5.01,6.07-8.89-.49-3.41-3.32-6.2-6.94-6.72Z"/><path class="cls-15" d="m372.3,833.94c6.5-.45,15.56-.62,26.26.71,8.09,1.01,14.86,1.85,22.83,5.1,5.66,2.31,17.81,7.26,26.23,19.75,10.18,15.09,8.38,31.48,7.67,36.32-5.02,1.6-12.65,3.84-22.08,5.8-12.56,2.62-29.99,5.12-73.5,3.91-13.96-.39-32.43-1.21-54.25-3.06-1.29-4.52-2.51-10.31-2.91-17.08-.33-5.62-.02-10.58.5-14.67,7.37.53,15.41.8,24.02.64,9.03-.16,17.42-.77,25.08-1.62.2-4.07,1.06-10.82,4.71-18.18,4.81-9.69,11.85-15.19,15.43-17.62Z"/><path class="cls-23" d="m352.15,869.74c-.48,8.1-.96,16.21-1.45,24.31-7.85.38-16.73.36-26.43-.44-7.72-.63-14.82-1.66-21.22-2.88-.77-1.51-1.95-4.32-2.02-8.01-.09-5.04,1.96-8.72,2.89-10.19,7.27.28,13.4.42,17.99.49,9.84.16,12.71.03,15.67-.29,6.21-.67,11.22-1.97,14.57-3Z"/><path class="cls-12" d="m372.64,831.33c3.86-1.88,10.22-5.04,17.23-2.74,4.6,1.51,7.42,4.51,8.68,6.06-5.79,2.47-16.59,8.02-25.68,19.49-13.43,16.94-14.15,35.46-14.13,41.45-6.62-.24-13.24-.49-19.87-.73,1.19-7.04,6.17-33.92,19.46-51.34,4.11-5.39,8.69-9.45,14.31-12.19Z"/><path class="cls-10" d="m300.21,890.25c7.46,1.3,17.71,2.84,29.98,3.93,29.37,2.61,51.98,1,65.31,0,22.46-1.7,37.85-4.6,42.14-5.44,7.85-1.53,14.44-3.1,19.34-4.36,3.23.35,5.75,2.93,5.99,6.03.22,2.82-1.48,5.54-4.2,6.64-14.89,4.26-27.54,6.86-36.74,8.48-44.57,7.87-79.48,5.42-93.2,4.11-11.65-1.11-21.18-2.64-27.56-3.8-4.17-.59-7.2-4.15-7.12-8.07.07-3.45,2.53-6.56,6.06-7.52Z"/><path class="cls-27" d="m328.77,248.48c.04.82.18,6.21-4.13,10.35-4.5,4.32-10.18,3.75-10.95,3.66,1.78-.4,5.71-1.52,9.38-4.9,3.74-3.45,5.18-7.36,5.7-9.11Z"/><path class="cls-27" d="m332.15,256.93c0,.62-.11,4.7-3.92,8.03-3.97,3.46-8.74,3.27-9.37,3.23,1.52-.38,4.87-1.4,8.1-4.11,3.3-2.77,4.67-5.8,5.19-7.15Z"/><path class="cls-27" d="m334.53,263.04c0,.62-.11,4.7-3.92,8.03-3.97,3.46-8.74,3.27-9.37,3.23,1.52-.38,4.87-1.4,8.1-4.11,3.3-2.77,4.67-5.8,5.19-7.15Z"/><path class="cls-27" d="m395.94,247.54c.04.82.18,6.21-4.13,10.35-4.5,4.32-10.18,3.75-10.95,3.66,1.78-.4,5.71-1.52,9.38-4.9,3.74-3.45,5.18-7.36,5.7-9.11Z"/><path class="cls-27" d="m399.32,255.99c0,.62-.11,4.7-3.92,8.03-3.97,3.46-8.74,3.27-9.37,3.23,1.52-.38,4.87-1.4,8.1-4.11,3.3-2.77,4.67-5.8,5.19-7.15Z"/><path class="cls-27" d="m401.7,262.09c0,.62-.11,4.7-3.92,8.03-3.97,3.46-8.74,3.27-9.37,3.23,1.52-.38,4.87-1.4,8.1-4.11,3.3-2.77,4.67-5.8,5.19-7.15Z"/><path class="cls-28" d="m161.04,547.32c-8.66,11.93-17.59,23.96-26.81,36.05-23.23,30.47-46.56,59.13-69.71,86.05,6.76,7.4,13.51,14.8,20.27,22.2,16.94-.71,43.13-1.69,75.29-2.41,41.7-.93,60.31-.68,117.28-1.45,43.85-.59,45.09-.92,82.53-1.45,31.15-.44,76.94-.85,133.68-.48,6.43-7.56,12.87-15.12,19.3-22.68-6.13-9.87-14.12-21.89-24.15-35.1-15.59-20.52-24.52-28.63-41.1-50.01-7.27-9.36-15.86-21.09-24.99-35.06-15.99.72-32.08,1.37-48.26,1.93-72.77,2.53-143.91,3.25-213.32,2.41Z"/><path class="cls-29" d="m481.4,657.73c-126.72.72-253.45,1.44-380.17,2.16,23.81-31.02,47.61-62.04,71.42-93.06l239.5-6.49c23.08,32.46,46.17,64.93,69.25,97.39Z"/><path class="cls-18" d="m58.3,553.6c-.44-2.96-1.83-9.4-7.1-14.93-2.09-2.2-6.77-7.11-13.46-7.1-1.11,0-4.34.05-7.59,2.2-.95.63-3.58,2.41-4.89,5.87-1.55,4.09-.23,7.74.24,9.06,1.07,2.95,2.79,4.7,4.89,6.85,1.27,1.3,3.39,3.42,6.85,5.14,2.83,1.41,5.41,1.96,7.1,2.2,2.7.38,4.99.23,6.61,0-1.34,7.6-1.05,13.53-.49,17.62.17,1.26.25,1.45,1.71,9.79,1.3,7.36,1.59,9.2,1.96,11.26,1.27,7.07,2.39,13.25,4.65,19.58,1.96,5.48,6.16,16.81,16.89,25.45,3.75,3.02,7.09,4.75,9.3,5.87,5.62,2.87,12.78,6.51,21.78,6.12,8.92-.39,15.23-4.56,20.56-8.08,4.09-2.7,9.73-6.43,14.2-13.71,1.87-3.06,6.53-11.62,5.63-22.76-.55-6.79-2.94-11.81-4.89-15.91-2.92-6.13-5.91-9.51-6.61-10.28-1.41-1.57-2.99-2.96-2.99-2.96-1.43-1.27-3.97-3.31-4.11-3.16-.15.17,2.1,3.47,4.11,3.16,1.17-.18,1.43-1.47,2.99-4.14,2.5-4.28,3.85-4.42,6.85-9.54.68-1.16,1.18-2.12,1.47-2.69-1.69-1.71-4.15-4.35-6.85-7.83-2.01-2.59-2.82-3.93-3.92-5.38-2.11-2.79-5.64-6.44-11.75-9.79-3.08-.62-7.45-1.3-12.73-1.47-5.34-.17-9.17.26-15.12.95-6.1.71-12.58,1.46-20.93,3.71-4.26,1.15-9.12,2.71-14.37,4.88Z"/><path class="cls-5" d="m48.75,554.58c-1.76,2-9.41.09-12.73-5.14-2.31-3.65-1.73-7.69-1.47-9.06,1.68.1,6.31.59,10.03,4.16,3.14,3.01,5.71,8.28,4.16,10.03Z"/><path class="cls-14" d="m450.37,541.59c-1.1,1.36-2.76,3.21-5.07,5.07-2.15,1.73-6.59,5.31-12.92,6.46-5.13.93-6.6-.63-9.69.92-3.47,1.74-5.13,5.46-6,8.3,1.92,1.44,3.94,3.12,6,5.07,3.69,3.51,6.56,7.03,8.77,10.15,5.38.15,10.76.31,16.15.46,3.34,3.83,8.14,9.38,13.84,16.15,8.67,10.29,15.65,18.6,23.99,29.53,3.74,4.9,8.87,11.8,14.76,20.3,3.3-4.87,5.86-9.42,7.84-13.38,1.64-3.28,4.42-9.23,6.92-17.07,1.84-5.76,3.04-9.55,3.69-14.76,1.08-8.62-.07-15.41-2.31-28.6-.69-4.07-1.36-7.41-1.85-9.69,5.29-4,8.42-8.27,10.15-11.07,2.05-3.32,4.24-6.87,4.61-12,.19-2.59.58-8.01-3.23-12.46-2.98-3.48-7.8-5.65-12.46-5.07-8.34,1.03-12.93,10.44-13.84,17.07-1,7.28,2.16,13,3.39,14.99-3.23-.28-8.16-.93-13.96-2.64-5.63-1.66-5.99-2.52-10.91-3.78-5.79-1.48-7.96-.97-16.81-2.11-4.71-.61-8.55-1.33-11.07-1.85Z"/><path class="cls-7" d="m510.35,546.67s-4.01-7.63-1.85-13.38c.08-.2,1.91-4.87,5.54-5.07,2.5-.14,4.6,1.91,5.54,3.69,1.57,3,.32,6.18,0,6.92-2.23,5.15-9.23,7.84-9.23,7.84Z"/><path class="cls-13" d="m169.47,608.47c3.77,9.75,7.53,19.49,11.3,29.24,25.27,9.1,64.75,19.96,113.98,20.2,46.45.22,84.11-9.09,108.93-17.31,5.95-11.84,11.91-23.68,17.86-35.52-84.02,1.13-168.04,2.26-252.06,3.39Z"/><path class="cls-21" d="m159.16,575.27c12.37-11.25,60.57-52.41,134.9-54.83,78.12-2.54,130.66,39.49,142.84,49.78,5.71,1.74,9.74,6.69,10.1,12.26.42,6.63-4.43,12.96-11.54,14.43-.56,2.52-2.31,8.72-7.94,13.71-9.43,8.36-21.59,6.08-23.08,5.77-2.77,3.18-8.93,9.3-18.76,12.26-17.91,5.39-33.03-4.24-35.35-5.77-4.59,3.72-15.87,11.82-32.46,13.71-21.47,2.45-37.32-7.14-41.84-10.1-3.84,2.24-15.38,8.3-30.97,6.75-16.07-1.6-26.39-10.28-29.63-13.24-10.6,6.97-23.96,7.51-34.28,1.34-12.07-7.21-14.45-20.29-14.77-22.26-6.62,2.17-13.66-1.26-15.94-7.21-2.5-6.53,1.35-14.49,8.73-16.59Z"/><path class="cls-16" d="m282.3,535.82c-8.77-1.47-30.22-3.83-54.1,6.49-19.44,8.4-31.26,21.23-36.79,28.13,14.63-3.39,31.22-8.21,49.05-15.15,15.86-6.17,29.83-12.91,41.84-19.48Z"/><path class="cls-16" d="m298.89,534.38c-12.01,5.97-19.39,18.47-18.76,31.74.66,13.79,9.85,25.88,23.08,30.3,1.75-1.22,14.83-10.65,15.87-27.41.87-14.05-7.05-27.65-20.2-34.63Z"/><path class="cls-16" d="m320.35,535.54c8.77-1.47,30.22-3.83,54.1,6.49,19.44,8.4,31.26,21.23,36.79,28.13-14.63-3.39-31.22-8.21-49.05-15.15-15.86-6.17-29.83-12.91-41.84-19.48Z"/><line class="cls-21" x1="481.4" y1="657.73" x2="512.86" y2="663.15"/><line class="cls-21" x1="422.61" y1="542.98" x2="414.31" y2="552.2"/><line class="cls-21" x1="64.51" y1="669.42" x2="92.07" y2="657.73"/><line class="cls-21" x1="177.69" y1="560.35" x2="161.04" y2="547.32"/><g id="Layer_3"><path class="cls-2" d="m314.09,252.34c-2.93-.69-8.91-1.63-15.28.92-4.99,2-8.3,5.37-10.22,7.31-.44.45-2.58,2.64-4.42,5.42-5.73,8.66-7.7,21.68-3.61,33.34.75,2.14,2.02,5.12,4.22,8.43,3.43-1.1,8.32-2.24,14.26-2.3,7.6-.07,13.67,1.67,17.47,3.1.77-1.17,1.71-2.72,2.61-4.62.42-.88,1.67-3.6,2.61-7.43.39-1.58,1.29-5.66,1.2-11.04-.04-2.32-.14-6.61-1.81-11.85-1.38-4.33-2.41-7.6-5.42-10.44-4.1-3.88-9.18-4.45-12.45-4.82-6.39-.72-11.63.93-14.66,2.21,1.53-1.81,4.84-5.23,10.22-7.31,6.92-2.67,13.02-1.48,15.28-.92Z"/><ellipse class="cls-27" cx="294.66" cy="290.74" rx="12.21" ry="15.71"/><ellipse class="cls-26" cx="294.66" cy="293.21" rx="7" ry="7.98"/><path class="cls-30" d="m287.66,246.51c.93-5.14,4.81-9.26,9.84-10.44,4.8-1.13,9.87.59,13.05,4.42-2.78-.19-6.8-.15-11.45,1-5.14,1.28-9.01,3.41-11.45,5.02Z"/><path class="cls-2" d="m381.4,248.29c-2.93-.69-8.91-1.63-15.28.92-4.99,2-8.3,5.37-10.22,7.31-.44.45-2.58,2.64-4.42,5.42-5.73,8.66-7.7,21.68-3.61,33.34.75,2.14,2.02,5.12,4.22,8.43,3.43-1.1,8.32-2.24,14.26-2.3,7.6-.07,13.67,1.67,17.47,3.1.77-1.17,1.71-2.72,2.61-4.62.42-.88,1.67-3.6,2.61-7.43.39-1.58,1.29-5.66,1.2-11.04-.04-2.32-.14-6.61-1.81-11.85-1.38-4.33-2.41-7.6-5.42-10.44-4.1-3.88-9.18-4.45-12.45-4.82-6.39-.72-11.63.93-14.66,2.21,1.53-1.81,4.84-5.23,10.22-7.31,6.92-2.67,13.02-1.48,15.28-.92Z"/><ellipse class="cls-27" cx="358.95" cy="287.9" rx="12.21" ry="15.71"/><ellipse class="cls-26" cx="358.95" cy="290.74" rx="7" ry="7.98"/><path class="cls-8" d="m346.02,307.76c1.01-3.34,3.3-5.3,4.6-6.42.91-.78,7.79-6.47,16.28-3.82.76.24,7.46,2.45,10.24,9.44.43,1.07,2.67,6.7-.2,12.25-3.31,6.4-10.71,7.4-12.45,7.63-1.65.22-5.9.74-10.24-1.61-6.06-3.27-10.19-10.97-8.23-17.47Z"/><path class="cls-1" d="m291.6,328.25c.65-1.04,2.56-3.8,6.23-5.22,5.57-2.15,10.55.61,11.25,1-2.91.13-5.82.27-8.74.4,1.32,2.81,3.41,6.68,6.63,10.84,2.86,3.69,6.91,8.94,13.84,12.7,1.91,1.04,9.13,4.72,18.4,4.37,19.64-.74,36.42-19.07,36.78-18.76,0,0,0,.03-.04.08-1.51,2.43-3.8,5.55-7.13,8.64-3.79,3.51-7.56,5.69-10.34,7.03-1.79,11.79-10.78,20.57-20.68,21.49-12.61,1.16-25.8-10.53-25.5-26.51-2.63-2.42-5.61-5.54-8.53-9.44-2.45-3.28-4.35-6.42-5.82-9.21-.52.26-1.05.52-1.61.77-1.64.75-3.23,1.34-4.72,1.81Z"/><path class="cls-3" d="m318.02,359.71c.77-.94,2.73-3.09,6.02-4.03,5.49-1.57,10.02,1.56,10.64,2.01.96-.65,4.61-2.95,9.64-2.41,5.53.6,8.76,4.22,9.44,5.02-.5.82-5.89,9.4-16.27,10.11-7.85.54-15.44-3.64-19.47-10.7Z"/><path class="cls-30" d="m387.43,241.12c-.93-5.14-4.81-9.26-9.84-10.44-4.8-1.13-9.87.59-13.05,4.42,2.78-.19,6.8-.15,11.45,1,5.14,1.28,9.01,3.41,11.45,5.02Z"/><path class="cls-9" d="m204.38,295.03c.33,1.89,1.92,9.65,9.05,14.89,4.33,3.18,8.74,4,11.01,4.26"/></g></svg>