<?xml version="1.0" encoding="UTF-8"?><svg id="Layer_9" xmlns="http://www.w3.org/2000/svg" width="1228.33" height="1135.18" viewBox="0 0 1228.33 1135.18"><defs><style>.cls-1{fill:none;stroke:#000;stroke-miterlimit:10;stroke-width:4px;}.cls-2{fill:#564f49;stroke-width:0px;}</style></defs><path class="cls-2" d="m287.88,983.3c11.78-19.77,42.43-54.58,54.61-74.11,11.02-17.67,27.29-56.2,36.08-75.09,11.13-23.92,35.05-70.97,46.81-94.59,13.07-26.26,39.51-78.64,51.68-105.32,7.88-17.27,23.1-54.33,20.48-73.14-1.36-9.73-11.87-26.83-15.92-35.92-4.27-9.59-23.06-20.75-30.89-28.44-8.56-8.4-22.13-28.38-29.25-38.03-3.9-5.29-11.49-16.25-13.67-22.45-5.93-16.79-7.12-53.86-2.9-71.16,3.82-15.68,14.68-47.87,20.98-62.73,7.07-16.68,21.24-48.12,27.78-65.02,5.04-13.01,19.05-37.28,25.35-49.73,3.8-7.5,11.5-24.34,17.03-36.56,3.66-8.09,6.37-14.15,6.37-14.15l23.4-46.81s26.65-41.81,37.06-54.61c4.84-5.95,16.32-16.85,23.35-19.92,12.18-5.32,39.84-9.23,52.79-6.25,16.54,3.8,45.52,22.84,60.38,31.05,18.52,10.22,57.07,27.75,76.06,37.06,24.28,11.89,72.79,35.84,96.54,48.76,16.16,8.79,47.75,27.89,62.41,39.01,11.68,8.86,32.96,30.03,39.98,42.91,6.62,12.14,10.36,40.87,8.78,54.61-1.95,16.92-19.4,47.33-27.3,62.41-8.95,17.07-30.4,49.2-40.96,65.34-9.11,13.92-28.13,41.24-38.03,54.61-8.91,12.03-27.8,35.31-36.08,47.78-8.76,13.2-23.83,41.14-32.18,54.61-9.43,15.21-29.73,45.6-43.88,56.56-9.81,7.6-34.51,14.89-46.81,16.58-16.27,2.23-49.29-3.35-65.34-6.83-11.04-2.39-32.59-10.9-43.88-10.73-9.51.14-28.42,7.87-35.11,14.63-7.77,7.85-12.73,30.6-16.58,40.96-6.42,17.27-23.38,50.12-32.18,66.31-8.55,15.73-26.96,46.47-35.11,62.41-10.23,20.01-27.96,61.36-37.06,81.91-9.58,21.66-28.2,65.24-38.03,86.79-8.14,17.86-25.25,53.24-35.11,70.21-8.39,14.44-27.83,41.66-37.06,55.58-5.16,7.78-15.97,24.24-24.38,28.28-7.7,3.7-26.09.95-34.13-1.95-8.11-2.93-21.36-15.76-25.35-23.4-4.07-7.79-3.63-26.48-1.95-35.11,0,0,21.83-50.57,31.2-66.31Z"/><path class="cls-1" d="m535.81,233.61c-8.6,16.03-23.19,49.38-30.48,66.04-6.31,14.43-18.07,43.65-23.69,58.36-4.78,12.5-14.04,39.1-11.6,52.25,1.35,7.3,12.61,19.04,19.01,22.79,5.02,2.94,18.05,3.38,23.27.81,7.39-3.64,14.39-20.14,18.42-27.32,6.28-11.19,16.04-35.01,21.65-46.55,6.2-12.74,19.25-37.9,25.52-50.61s18.57-38.52,25.3-51.08c6.67-12.44,21.2-36.68,28.71-48.63,7.32-11.65,22.95-34.33,29.8-46.26,4.26-7.43,12.17-24,10.91-32.47-1.34-9-16.17-22.71-23.98-27.39-5.25-3.15-18.74-4.36-24.39-2.01-12.36,5.14-26.18,30.56-33.6,41.71,0,0-42.37,67.07-54.86,90.36Z"/><path class="cls-1" d="m637.38,297.52c-8.6,16.03-23.19,49.38-30.48,66.04-6.31,14.43-18.07,43.65-23.69,58.36-4.78,12.5-14.04,39.1-11.6,52.25,1.35,7.3,12.61,19.04,19.01,22.79,5.02,2.94,18.05,3.38,23.27.81,7.39-3.64,14.39-20.14,18.42-27.32,6.28-11.19,16.04-35.01,21.65-46.55,6.2-12.74,19.25-37.9,25.52-50.61,6.3-12.78,18.57-38.52,25.3-51.08,6.67-12.44,21.2-36.68,28.71-48.63,7.32-11.65,22.95-34.33,29.8-46.26,4.26-7.43,12.17-24,10.91-32.47-1.34-9-16.17-22.71-23.98-27.39-5.25-3.15-18.74-4.36-24.39-2.01-12.36,5.14-26.18,30.56-33.6,41.71,0,0-42.37,67.07-54.86,90.36Z"/><path class="cls-1" d="m748.41,358.1c-8.6,16.03-23.19,49.38-30.48,66.04-6.31,14.43-18.07,43.65-23.69,58.36-4.78,12.5-14.04,39.1-11.6,52.25,1.35,7.3,12.61,19.04,19.01,22.79,5.02,2.94,18.05,3.38,23.27.81,7.39-3.64,14.39-20.14,18.42-27.32,6.28-11.19,16.04-35.01,21.65-46.55,6.2-12.74,19.25-37.9,25.52-50.61,6.3-12.78,18.57-38.52,25.3-51.08,6.67-12.44,21.2-36.68,28.71-48.63s22.95-34.33,29.8-46.26c4.26-7.43,12.17-24,10.91-32.47-1.34-9-16.17-22.71-23.98-27.39-5.25-3.15-18.74-4.36-24.39-2.01-12.36,5.14-26.18,30.56-33.6,41.71,0,0-42.37,67.07-54.86,90.36Z"/></svg>