<?xml version="1.0" encoding="UTF-8"?><svg id="Layer_9" xmlns="http://www.w3.org/2000/svg" width="2759.19" height="2164.45" viewBox="0 0 2759.19 2164.45"><defs><style>.cls-1{fill:none;}.cls-1,.cls-2,.cls-3{stroke:#000;stroke-miterlimit:10;stroke-width:14px;}.cls-2{fill:#a6b8c7;}.cls-3{fill:#729bb7;}</style></defs><path class="cls-1" d="m1821.58,391.23c1.18-43.08,51.86-74.07,79.67-91.01,65.7-40.03,133.64-38.41,159.33-37.47,27.86,1.02,81.51,3.63,136.57,37.47,50.63,31.12,75.48,72.08,85.36,91.01,28.89,55.35,25.23,105.4,22.76,139.19-2.96,40.53-7.19,98.36-51.21,149.89-49.67,58.14-129.4,88.42-159.33,69.59-22.12-13.91-37.54-35.99-37.54-35.99-4.55-6.51-4.89-8.31-6.29-10.26,0,0-.77-1.01-1.69-1.93-13.49-13.4-61.13-9.49-61.13-9.49-13.08,1.07-16.69,1.9-27.05,2.97-12.06,1.25-73.25,7.61-76.85-4.19-3.15-10.32,42.24-19.42,51.21-53.53,4.69-17.81-1.52-39.49-14.55-51.66-17.24-16.11-46.13-15.29-77.82-14.39-19.32.55-24.24,2.92-33.44-1.18-21.03-9.38-36.14-38.34-27.84-55.89,1.08-2.29,3.48-6.32,16.34-14.04,30.23-18.15,45.34-12.95,52.09-22.55,12.31-17.52-29.69-46.61-28.6-86.53Z"/><path class="cls-3" d="m1832.96,219.93c83.54-48.13,162.1-56.97,199.17-58.89,39.93-2.07,112.06-4.96,187.79,32.12,47.44,23.23,75.26,51.85,108.12,85.65,37.23,38.3,78.83,81.1,102.43,149.89,10.98,31.99,35.41,103.23,5.69,176.66-10.84,26.78-37.58,55.33-91.05,112.42-53.67,57.31-80.9,85.59-108.12,101.71-82.95,49.12-190.13,51.75-204.86,21.41-9.47-19.49,15.23-60.86,22.72-113.15.72-4.99,2.06-15.61-3.78-25.16-8.02-13.13-24.37-15.66-25.76-15.85-8.77-1.23-12.7,1.53-24.69,3.86-17.71,3.44-25.7.66-36.55,1.42-21.75,1.52-37.24,16.02-55.87,33.45-38.3,35.85-31.96,54.82-53.81,61.95-31.2,10.18-78.85-17.18-78.34-37.52.03-1.03.15-1.76.25-2.15,1.5-5.92,11.29-14.33,68.04-46.03,63.27-35.34,82.26-42.29,91.05-64.24,6.35-15.86,7.12-38.92-5.69-53.53-24.98-28.49-90.66-12.41-119.5-5.35-66.22,16.21-83.7,42.43-108.12,32.12-31.85-13.44-42.84-76.69-22.76-96.36,6.13-6.01,29.13-6.12,74.88-6.09,24.31.01,38.31.51,58.66-4,19.07-4.22,38.07-8.68,42.86-22.03,3.57-9.94-2.38-20.25-13.07-38.23-5.42-9.1-16.2-27.22-32.98-41.77-45.94-39.86-99.31-20.47-109.63-42.03-13.49-28.18,60.03-98.29,132.92-140.28Z"/><path class="cls-2" d="m1735.44,508.33c-131.41-.73-228.2-22.94-331.59-42.47-124.67-23.55-94.77-12.19-207.42-33.94-188.74-36.43-271-67.99-316.21-26.36-15.93,14.67-8.03,20.72-31.72,76.67-16.04,37.88-45.65,107.61-102.43,160.6-18.76,17.51-84.67,77.23-187.79,85.65-121.29,9.91-206.74-58.28-227.62-74.95-61.61-49.17-87.24-106.53-96.74-128.48-17.2-39.78-20.95-78.27-28.45-155.25-7.74-79.44-13.2-118.85,5.69-160.6,5.94-13.13,11.76-25.99,25-38.13,22.39-20.53,55.45-25.01,121.57-33.97,7.79-1.06,20.25-2.58,36.03-3.41,28.88-1.51,50.85.23,63.17,1.29,94.02,8.03,141.09,11.85,184.87,23.33,50.4,13.21,88.46,29.75,117.24,42.42,43.37,19.09,65.05,28.64,74.6,37.47,8.04,7.44,25.5,25.62,54.69,35.24,2.85.94,5.04,1.53,9.43,2.7,38.84,10.35,69.73,9.5,77.72,9.43,42.73-.37,97.13,16.1,205.16,33.94,81.89,13.52,144.55,19.57,185.69,23.53,159.56,15.39,278.83,21.41,278.83,21.41,73.87,3.73,121.21,4.57,164.49,37.77,25.77,19.77,56.67,56.05,46.05,80-8.29,18.71-40.42,26.53-120.28,26.09Z"/><path class="cls-1" d="m894.33,321.64c-.12,9.67-2,23.58-11.27,36.06-15.11,20.32-41.74,25.91-78.91,29.69-61.12,6.22-107.38,3.11-164.58,0-100.6-5.46-93.95-3.26-112.73-6.36-35.29-5.84-71.62-18.74-144.29-44.54-58.55-20.79-77.28-29.94-96.94-44.54-24.96-18.53-41.52-38.5-51.85-53.02"/><path class="cls-1" d="m233.75,238.92c-4.78-9.19-20.95-40.3-9.02-63.63,4.11-8.04,16.71-25.23,115.57-35.01,67.54-6.68,119.85-4.42,137.58-3.5,37.45,1.93,89.13,4.83,155.46,19.43,64.12,14.11,104.25,30.87,157.28,53.02,41.41,17.29,69.94,32.01,88.84,61.25,6.01,9.31,17.54,27.72,14.87,51.16-3.37,29.62-27.26,48.31-34.55,54.02-35.37,27.68-83.29,24.06-172.98,14.17-186.67-20.59-241.37-33.83-271.9-41.89,0,0-77.28-20.39-141.53-65.81-10.58-7.48-27.89-20.65-39.62-43.21Z"/><path class="cls-2" d="m1851.07,697.37c-116.88,56.52-213.61,78.94-314.88,106.6-122.12,33.36-90.02,30.42-200.59,60.14-185.26,49.81-273.71,57.61-293.33,114.19-6.91,19.94,3.06,21.87,9.57,81.78,4.4,40.57,12.42,115.27-11.88,186.96-8.03,23.69-37.11,105.31-124.4,157.64-102.67,61.55-211.95,38.26-238.66,32.57-78.79-16.79-129.72-56.5-148.93-71.83-34.81-27.78-57.05-60.28-101.54-125.27-34.32-50.14-62.32-89.65-73.9-144.87-6.53-31.15-3.37-43.21-1.32-49.13,5.35-15.43,17.02-29.09,95.84-78.57,12.62-7.92,23.13-14.35,30.27-18.69,24.86-13.91,45.2-21.91,56.64-26.34,87.31-33.78,130.93-50.87,175.39-59.74,53.22-10.62,96.92-12.38,124.8-13.39,42.97-1.55,64.45-2.33,77.18.68,15.83,3.75,40.58,12.19,73.2,7.55,3.35-.48,5.74-.94,9.68-1.71,39.53-7.71,66.5-21.91,73.55-25.45,37.71-18.91,94.03-27.98,198.59-59.16,79.25-23.64,137.78-45.53,176.21-59.91,149.04-55.76,257.76-102.31,257.76-102.31,0,0,73.95-32.44,164.42-38.07,24.76-1.54,56.39-1.3,71.69,18.99,10.2,13.53,8.67,30.04,8.47,31.91-3.79,35.33-53.36,55.89-93.83,75.46Z"/><path class="cls-1" d="m1013.52,897.75c4.64,8.63,9.82,21.78,7.73,36.87-3.41,24.58-24.27,41.14-55.37,60.66-51.13,32.1-93.68,49.47-145.93,71.6-91.89,38.92-84.9,37.98-103.08,43.4-34.16,10.18-72.72,14.54-149.83,23.28-62.13,7.04-83.24,7.07-107.85,2.68-31.24-5.57-55.74-16.07-72.04-24.46"/><path class="cls-1" d="m387.15,1111.77c-8.75-6.07-38.38-26.61-39.27-52.49-.31-8.92,2.42-29.64,85.27-81.32,56.6-35.31,104.09-56.05,120.27-62.96,34.16-14.58,81.4-34.49,147.39-50.4,63.79-15.38,107.61-17.98,165.51-21.41,45.21-2.68,77.75-2.05,108.87,15.66,9.91,5.64,29.18,16.95,38.34,38.89,11.56,27.73-.42,54.69-4.08,62.93-17.75,39.93-62.02,57.57-146.41,87.82-175.63,62.95-230.64,75-261.67,81.14,0,0-78.54,15.54-157.83,3.22-13.06-2.03-34.88-6.18-56.37-21.08Z"/><path class="cls-2" d="m2020.8,806.48c-97.91,123.76-110.78,158.69-196.24,255.01-12.56,14.16-30.67,34.59-53.69,63.57-21.7,27.31-27.3,37.4-75.97,92.47-123.19,139.37-191.58,192.72-173.89,249.85,6.23,20.13,15.63,16.44,56.9,62.48,27.94,31.17,79.32,88.64,102.2,160.73,7.56,23.83,32.44,106.67-8.32,196.17-47.94,105.28-152.16,143.99-177.63,153.45-75.15,27.91-141,22.11-166.06,19.63-45.4-4.5-83.24-19.54-158.93-49.64-33.65-13.38-92.06-34.27-147.84-80.49-18.23-15.1-25.77-24.15-29.81-36.3-3.22-9.69-5.27-24.56,31.38-119.3,1.96-5.07,6.51-16.74,13.8-31.49,12.21-24.67,24.21-42.07,31.01-51.79,51.88-74.2,77.67-111.44,109.09-142.34,27.41-26.97,49.85-43.84,95.07-77.23,44.78-33.07,67.16-49.61,82.53-52.47,5.92-1.1,27.27-4.26,46.61-20.46,1.85-1.55,3.56-3.22,6.97-6.55,28.03-27.33,41.8-53.36,45.51-60.02,19.82-35.62,60.91-72.97,128.6-154.17,51.3-61.55,86.53-110.67,109.66-142.92,89.7-125.09,151.62-221.18,151.62-221.18,0,0,48.79-92.56,113.01-118.62,5.18-2.1,12.13-4.19,12.73-4.37,6.04-1.81,67.24-19.54,83.98,3.92,2.88,4.03,3.78,8.35,4.21,13.01,3.59,38.27-25.52,83.21-36.51,99.07Z"/><path class="cls-1" d="m1449,1416.09c9,4.66,21.16,12.78,28.48,26.36,11.91,22.11,4.59,46.85-9.4,79.46-23.01,53.63-47.75,90.53-77.65,136.52-52.58,80.87-47.38,76.39-59.15,90.5-22.12,26.52-51.35,50.57-109.82,98.67-47.11,38.75-64.52,49.98-87.48,59.4-29.14,11.96-55.67,16.28-74.16,18"/><path class="cls-1" d="m1059.82,1924.99c-10.86-.37-47.65-1.63-63.89-22.54-5.6-7.2-15.76-25.76,21.71-112.38,25.6-59.18,52.4-101.49,61.63-115.77,19.48-30.15,46.58-71.66,91.55-119.78,43.48-46.53,78.12-71.91,123.89-105.44,35.74-26.19,62.99-42.92,99.32-44.79,11.56-.6,34.26-1.47,54.97,11.8,26.16,16.77,32.42,45.4,34.33,54.15,9.26,42.4-16.74,80.44-68.33,150.17-107.36,145.12-145.58,184.25-167.54,205.77,0,0-55.56,54.48-128.45,86.35-12,5.25-32.52,13.39-59.19,12.47Z"/><path class="cls-1" d="m1808.74,498.96c.82-1.75,1.64-3.51,2.47-5.26"/><ellipse class="cls-1" cx="2111.18" cy="468.84" rx="182.15" ry="227.28" transform="translate(182.99 1448.11) rotate(-39.45)"/></svg>