<?xml version="1.0" encoding="UTF-8"?><svg id="Layer_2" xmlns="http://www.w3.org/2000/svg" width="1928" height="1094" viewBox="0 0 1928 1094"><defs><style>.cls-1{letter-spacing:.1em;}.cls-2{letter-spacing:.1em;}.cls-3{letter-spacing:.1em;}.cls-4,.cls-5,.cls-6,.cls-7,.cls-8,.cls-9,.cls-10,.cls-11,.cls-12,.cls-13,.cls-14,.cls-15,.cls-16,.cls-17,.cls-18,.cls-19,.cls-20,.cls-21,.cls-22,.cls-23,.cls-24,.cls-25,.cls-26,.cls-27,.cls-28,.cls-29,.cls-30{stroke-miterlimit:10;}.cls-4,.cls-31{font-size:175px;}.cls-4,.cls-32,.cls-29{font-family:Noteworthy-Light, Noteworthy;font-weight:300;}.cls-4,.cls-26,.cls-29,.cls-30{stroke-width:5px;}.cls-4,.cls-29{stroke:#29abe2;}.cls-4,.cls-29,.cls-33{fill:#29abe2;}.cls-5,.cls-6,.cls-7,.cls-8,.cls-9,.cls-10,.cls-11,.cls-12,.cls-13,.cls-14,.cls-15,.cls-16,.cls-17,.cls-18,.cls-19,.cls-20,.cls-21,.cls-22,.cls-23,.cls-24,.cls-25,.cls-27,.cls-28{stroke:#000;}.cls-5,.cls-6,.cls-34{fill:#fff;}.cls-5,.cls-7,.cls-8,.cls-9,.cls-10,.cls-11{stroke-width:2px;}.cls-6{stroke-width:4px;}.cls-7{fill:#b999a4;}.cls-8{fill:#d3be25;}.cls-9{fill:#c09ca8;}.cls-10,.cls-28{fill:#f7b37f;}.cls-35{letter-spacing:.09em;}.cls-36{letter-spacing:.05em;}.cls-31{letter-spacing:0em;}.cls-12{fill:#603813;}.cls-12,.cls-13,.cls-14,.cls-15,.cls-16,.cls-17,.cls-18,.cls-19,.cls-20,.cls-21,.cls-22,.cls-23,.cls-24,.cls-25,.cls-27,.cls-28{stroke-width:3px;}.cls-13{fill:#232b36;}.cls-14{fill:#e2df88;}.cls-15{fill:#c2ad92;}.cls-16{fill:#45a935;}.cls-17{fill:#4f575c;}.cls-18{fill:#850923;}.cls-37{letter-spacing:.11em;}.cls-19{fill:#fecf1f;}.cls-20{fill:#69bc3a;}.cls-21{fill:#0067b8;}.cls-38,.cls-33,.cls-34,.cls-39,.cls-40,.cls-41,.cls-42{stroke-width:0px;}.cls-22{fill:#efb68f;}.cls-23{fill:#ebb975;}.cls-24{fill:#e2edff;}.cls-25{fill:#fffaaf;}.cls-26{letter-spacing:.09em;}.cls-26,.cls-30{fill:blue;font-size:132px;stroke:blue;}.cls-27{fill:#f8b47b;}.cls-43{letter-spacing:.01em;}.cls-29{font-size:82px;}.cls-39{fill:#ffaae3;}.cls-40{fill:#022d52;}.cls-41{fill:#021b2d;}.cls-42{fill:#010101;}.cls-30{letter-spacing:.1em;}.cls-44{letter-spacing:.03em;}</style></defs><g id="Layer_2-2"><rect class="cls-39" width="1928" height="1094"/><path class="cls-19" d="m1610.33,121.39c-11.92,3.07-18.74,6.79-22.19,8.87-7.59,4.59-15.79,9.56-19.02,19.02-2.72,7.97-.6,15.77.63,20.28,2.17,7.96,5.07,9.75,8.24,20.92,3.12,11.02,1.41,13.22.63,13.95-2.77,2.61-8.54.6-10.14,0,.6,3.17,1.93,6.92,5.07,9.51,4.16,3.43,9.51,3.19,10.78,3.17,22.43-.3,118.5,51.8,147.06,24.72,5.09-4.82,17.47-21.1,24.43-30.72,2.06-2.85,3.71-5.21,4.73-6.68-2.9-9.02-7.87-21.08-16.63-33.7-9.96-14.37-20.48-23.2-24.92-26.72-9.89-7.83-19.04-12.58-24.86-15.24-4.36-1.99-16.96-7.44-34.54-9.94-23.32-3.31-41.54.56-49.28,2.55Z"/><path class="cls-6" d="m1798.6,167.03c-3.05,7.92-15.98,6.95-28.53,21.55-5.05,5.88-7.9,11.8-9.51,15.85-3.18-9.99-15.61-44.77-51.98-67.83-44.35-28.11-90.29-17.24-98.25-15.21-.85-12.47-1.69-24.93-2.54-37.4,15.02-6.16,44.18-15.33,78.6-8.24,28.2,5.8,44.79,19.51,77.97,46.91,15.86,13.1,38.84,32.4,34.23,44.37Z"/><path class="cls-6" d="m1825.22,180.34c13.6-8.15,14.92-28.83,8.87-42.47-6.02-13.58-18.81-18.98-22.19-20.28-1.62-4.75-8.14-22.02-26.62-32.96-15.21-9-29.97-8.65-35.5-8.24-1.91-3.5-16.06-28.44-46.27-34.23-24.28-4.66-43.01,6.1-47.54,8.87-28.14-12.57-54.52-9.99-64.66,3.8-4.65,6.33-8.02,17.93-3.17,27.26,5.16,9.93,17.01,12.2,22.82,13.31,16.51,3.16,30.06-4.08,34.86-6.97,5.21,5.17,14.19,12.7,27.26,17.75,22.11,8.53,41.84,4.52,49.44,2.54,3.52,4.96,9.58,12.17,19.02,18.38,12.7,8.36,25.04,10.66,31.69,11.41-.12,2.67-.68,21.52,13.95,34.23,8.45,7.35,25.1,15.36,38.03,7.61Z"/><path class="cls-8" d="m1761.83,244.37c-3.71-19.01-158.08,2.88-171.08,20.3-.59.8-3.75,5.41-8.94,6.33-.55.1-6.82,1.11-9.51-3.17-2.25-3.58-.16-7.92,0-8.24-6.7.85-12.23,5.63-13.95,12.04-2.05,7.63,2.18,14.3,5.71,17.12,2.85,2.28,6.38,3.23,6.38,3.23,1.5.4,2.8.54,3.76.58-.87.92-4.47,4.54-9.51,4.44-6.17-.13-12.13-5.8-13.31-13.95-.96,3.37-2.35,9.93-.63,17.75.58,2.62,3.61,16.45,16.48,22.82,9.88,4.89,19.81,2.54,23.09,1.57,1.78-.53,3.2-1.12,4.17-1.57-1.48,3.17-2.96,6.34-4.44,9.51,3.99-1.13,8.51-2.74,13.31-5.07,9.26-4.49,16.12-10.01,20.84-14.52.55-.52.45-.45.71-.69,7.39-6.85,17.17-6.94,21.58-7.08,10.47-.34,30.74-2.27,57.86-4.55,16.62,2.4,33.25,4.79,49.87,7.19,1.66,3.5,5.37,10.03,12.68,15.21,2.6,1.84,14.38,10.18,28.53,6.34,2.52-.68,10.72-3.28,16.48-11.41,3.53-4.98,4.66-9.93,5.07-12.68-1.75,1.57-6.32,5.24-13.31,6.34-7.8,1.23-13.81-1.5-15.85-2.54,4.43-1.07,14.83-4.27,22.19-13.95,2.76-3.64,9.61-12.65,6.34-21.55-1.57-4.27-4.86-6.88-6.97-8.24-.11.63-1.4,7.34-7.61,10.14-3.98,1.8-7.69.96-8.87.63,5.96-4.33,8.95-11.53,7.61-18.38-1.79-9.15-10.39-12.89-11.41-13.31-4.26-1.77-8.14-1.53-10.14-1.27,3.73,4,4.3,9.41,1.9,12.68-2.54,3.46-7.46,3.21-8.24,3.17-3.95-.2-7.15-2.53-8.87-5.07-2.7-3.97-1.49-8.01-1.9-10.14Z"/><path class="cls-27" d="m1867.06,413.61c8.2,4.62,8.26,17.68,8.24,19.65-4.84-2.12-11.73-4.55-20.28-5.71-8.18-1.11-15.18-.69-20.28,0-6.85-1.91-8.4-3.54-8.42-4.74-.03-3.21,11.04-5.67,20.83-7.85,10.68-2.37,16.09-3.51,19.91-1.36Z"/><path class="cls-27" d="m1562.79,416.78c.46,1.56-.15,3.61-2.54,6.34-3.7.43-9.53,1.3-16.48,3.17-14.7,3.95-21.43,8.9-24.09,6.34-2.43-2.34-.31-9.85,3.8-14.58,10.7-12.28,37.19-8.37,39.3-1.27Z"/><path class="cls-21" d="m1754.86,587.3c.62,1.68,1.04,7.88,1.9,20.28,1.48,21.48.31,21.59,1.9,28.53,3.72,16.15,10.94,19.16,8.24,25.99-2.84,7.18-12,6.81-17.12,17.12-1.88,3.79-2.38,7.35-2.54,9.51-6.6.15-12-.23-15.85-.63-2.94-.31-6.4-.84-13.31-1.9-6.05-.93-8.69-1.42-13.31-1.9-3.46-.36-6.32-.54-8.24-.63,1.34-16.13,1.79-29.92,1.9-40.57.23-21.42-.85-36.61-1.7-48.27-1.19-16.31-2.4-32.81-4.63-32.87-1.92-.05-3.87,12.05-6.69,29.5-1.53,9.48-2.39,16.7-2.82,20.58-1.24,11.17-1.88,16.87-1.9,24.72-.03,9.26.82,16.03,1.9,24.72.85,6.8,2.2,15.66,4.44,25.99-5.22.73-12.12,1.5-20.28,1.9-12.95.63-15.47-.35-17.12-1.27-5.78-3.2-3.76-7.12-12.04-16.48-4.4-4.97-8.19-9.26-14.58-11.41-4.98-1.68-8.31-.96-9.51-3.17-1.59-2.93,2.17-8.07,5.71-12.04.63-10.03,1.27-20.06,1.9-30.09-1.21-6.97-1.39-15.49,2.53-23.43,19.28-39.06,121.38-31,131.22-4.16Z"/><path class="cls-17" d="m1766.9,662.1c5.24.28,12.5,1.05,20.92,3.17,6.37,1.61,11.69,2.95,17.75,6.34,4.3,2.41,13.52,7.57,19.02,18.38,6.64,13.07,3.59,25.99,2.54,29.79-4.17.78-10.49,1.81-18.23,2.46-10.3.85-24.48,1.13-59.15-4.15-11.12-1.69-25.81-4.18-43.07-7.81-.59-3.74-.99-8.49-.63-13.95.29-4.52,1.03-8.46,1.86-11.68,5.84,1.15,12.24,2.16,19.14,2.89,7.24.76,14.01,1.11,20.21,1.18.56-3.23,1.92-8.54,5.57-14.06,4.8-7.27,10.98-10.97,14.08-12.56Z"/><path class="cls-25" d="m1747.25,688.72c-1.19,6.43-2.37,12.86-3.56,19.29-6.32-.47-13.41-1.37-21.09-2.97-6.11-1.27-11.68-2.79-16.68-4.4-.47-1.28-1.13-3.65-.82-6.6.43-4.04,2.43-6.78,3.32-7.86,5.79.94,10.67,1.66,14.33,2.17,7.85,1.1,10.16,1.28,12.56,1.32,5.03.08,9.16-.46,11.94-.96Z"/><path class="cls-18" d="m1718.7,302.08c9.25,1.61,18.53,3.26,27.83,4.92,2.57.46,5.13.92,7.7,1.39,1.69,3.52,5.41,9.98,12.68,15.21,2.77,1.99,9.84,6.94,19.92,7.23,3.57.11,6.55-.4,8.6-.89,3.32,2.49,7.78,5.96,12.88,10.3,19.76,16.84,32.04,32.32,34.97,36.06,7.18,9.19,15.75,21.6,23.79,37.31-4.59-.49-11.67-.7-19.91,1.36-9.65,2.41-16.57,6.83-20.49,9.78-3.64-6.39-8.44-13.71-14.74-21.28-7.71-9.26-15.52-16.32-22.19-21.55-8.6-1.53-15.42-3.79-20.28-5.71-6.3-2.48-11.49-5.24-17.12-8.24-4.19-2.23-7.65-4.23-10.14-5.71.4,2.13.92,6.62-1.16,11.45-.79,1.83-1.76,3.28-2.65,4.37-39.72-1.47-79.44-2.94-119.16-4.42-.72-1.61-1.49-3.8-1.88-6.47-.62-4.29.02-7.84.61-10.01-7.07,4.11-13.17,7.26-17.75,9.51-12.76,6.28-18.02,7.69-20.28,8.24-5.5,1.35-10.17,1.76-13.31,1.9,1.11,4.28,2.15,10.3,1.82,17.49-.47,9.99-3.41,17.77-5.62,22.45-5.51-.9-12.39-1.57-20.28-1.27-7.39.28-13.82,1.33-19.02,2.54-.77-4.69-1.65-11.45-1.9-19.65-.27-8.85-.42-14.07,1.27-20.92,2.51-10.18,7.39-17.02,8.87-19.02,2.89-3.87,6.42-7.43,19.02-15.85,6.62-4.42,15.6-10.09,26.71-16.17,6.1-2.01,12.2-4.01,18.3-6.02-1.9,4.23-3.8,8.45-5.71,12.68,5.9-1.69,13.37-4.52,21.19-9.46,3.97-2.51,7.35-5.12,10.18-7.6,32.43-4.66,64.85-9.32,97.28-13.98Z"/><path class="cls-24" d="m1716.81,316.07c1.62,15.23,1.38,25.32.65,32.25-.29,2.74-1.08,8.88,1.9,15.21.67,1.42,2.08,4.36,5.07,6.97,5.78,5.05,11.07,3.33,13.31,6.34,1.83,2.46,1.49,7.91-7.61,20.92,5.44,10.97,8.87,20,10.78,25.36,15.81,44.46,17.33,91.97,25.36,121.07.95,3.46,2.58,9.25,5.71,16.48,2.85,6.58,6,12.16,9.51,18.38,2.53,4.48,4.74,8.17,6.34,10.78-3.43-.57-8.46-1.32-14.58-1.9-8.1-.77-12.58-1.19-18.38-.63-4.5.43-8.5,1.56-16.48,3.8-13.61,3.83-13.66,5.01-19.65,5.71-8.38.97-15.49-.51-19.02-1.27-7.8-1.68-8.98-3.45-16.48-4.44-2.78-.37-7.82-.99-13.95,0-9.2,1.49-9.42,4.79-17.75,6.34-9.68,1.8-17.94-1.06-20.28-1.9-5.36-1.93-4.65-3.02-13.31-6.97-5-2.28-8.92-3.59-15.21-5.71-9.54-3.2-13.64-1.93-14.58-4.44-.91-2.41,2.38-4.07,6.97-12.04,3.1-5.39,4.77-10.12,6.34-14.58,0,0,1.82-5.17,3.17-10.78,4.93-20.45,16.97-102.19,19.02-114.73.42-2.57,1.29-7.61,3.17-13.95,1.38-4.66,2.82-8.38,3.8-10.78-2.63-3.54-5.81-8.62-8.24-15.21-1.76-4.77-2.68-9.12-3.17-12.68,1.97.14,7.11.22,11.41-3.17,1.88-1.48,4.14-4.05,5.7-10.14,3.22-12.5-.17-25.4-2.23-31.7,5.04,3.47,10.09,6.94,15.13,10.4-.71,3.51-1.42,7.01-2.12,10.52.74-.36,7.23-3.37,13.31,0,2.78,1.54,4.33,3.78,5.07,5.07,1.24-5.73,6.23-9.92,12.04-10.14,5.69-.22,10.9,3.42,12.68,8.87.2-.72,1.16-3.91,4.36-5.76,4.54-2.63,9.32-.09,9.59.05-.21-5.95-.42-11.9-.64-17.85,4.43-4.59,8.87-9.18,13.3-13.77Z"/><path class="cls-28" d="m1691.96,304.49c-1.28-5.97-11.95-8.07-13.95-8.47-11.24-2.21-26.32,1.76-27.53,9-1.13,6.76,9.77,16.64,20.95,16.52,11.24-.12,21.98-10.34,20.54-17.06Z"/><path class="cls-14" d="m1721.26,305.85c1.23,4.64-3.41,9.43-12.68,19.02-5.09,5.26-9.78,9.26-13.31,12.04-1.86-2.83-5.25-7.16-10.78-10.78-3.54-2.31-6.91-3.65-9.51-4.44,7.38-4.02,10.55-8.51,12.04-12.04,1.23-2.9,1.19-4.83,3.24-7.18,3.72-4.28,9.74-4.66,11.79-4.79,6.9-.43,17.59,2.09,19.21,8.17Z"/><path class="cls-14" d="m1621.2,313.75c-.51,4.77,4.81,8.8,15.43,16.86,5.83,4.42,11.08,7.65,15,9.87,1.41-3.08,4.09-7.88,9-12.3,3.14-2.83,6.27-4.66,8.72-5.84-7.9-2.84-11.72-6.79-13.74-10.06-1.66-2.68-1.92-4.59-4.29-6.6-4.33-3.67-10.34-3.12-12.38-2.94-6.88.62-17.07,4.75-17.73,11.01Z"/><path class="cls-22" d="m1585.66,218.73c-.27-4.12,2.62-7.9,5.66-9.86,3.47-2.23,7.04-2.02,8.24-1.9-2.33-6.05-3.34-11.35-3.8-15.21-.62-5.11-1.3-10.82.63-17.75,1.68-6.02,4.65-10.47,6.97-13.31,11.72,2.23,21.51,2.95,28.53,3.17,10.47.33,15.82.45,21.55-1.9,11.95-4.9,17.29-15.93,18.38-15.21.61.4-.67,4.13-8.24,17.75,3.86-.74,9.01-2.17,14.58-5.07,3.93-2.05,7.09-4.32,9.51-6.34,1.33,2.28,2.84,5.37,3.98,9.2,1.22,4.09,1.62,7.71,1.72,10.46,1.4-1.74,3.34-4.55,4.71-8.42,1.34-3.79,1.62-7.12,1.63-9.33,8.15,14.66,14.97,26,19.65,33.6,5.56,9.03,9.55,15.1,12.04,24.72,2.21,8.53,2.23,15.96,1.9,20.92,6.87-2.82,10.56-6.53,12.68-9.51,3.47-4.88,3.23-8.5,7.61-12.04.72-.59,6.37-5.06,10.78-3.17,5.58,2.39,5.15,13.28,5.07,15.21-.27,6.89-3.01,11.65-7.61,19.65-2.71,4.73-4.9,7.34-7.61,9.51-2.4,1.92-4.7,3.1-6.34,3.8-1.31,4.26-3.82,10.47-8.87,16.48-4.32,5.14-8.85,7.93-17.75,13.31-5.43,3.28-14,8.41-26.62,13.31-10.97,4.26-16.45,6.39-22.82,6.97-6.39.58-14.76-.12-41.2-14.58-25.17-13.76-37.81-20.84-40.57-30.43-.93-3.22-3.81-15.62,8.87-33.6-7.4-.12-12.91-5.13-13.27-10.43Z"/><path class="cls-15" d="m1767.44,660.05c3.27-1.12,8.67-3.02,14.05-.48,3.53,1.67,5.48,4.34,6.34,5.71-4.87,1.4-14.06,4.77-22.46,13.04-12.41,12.21-14.82,26.95-15.4,31.74-5.27-.85-10.54-1.7-15.81-2.55,1.65-5.51,8.29-26.5,20.64-39.11,3.82-3.9,7.88-6.69,12.64-8.33Z"/><path class="cls-13" d="m1703.7,699.98c5.84,1.78,13.88,4.03,23.57,6.11,23.22,5,41.45,5.95,52.21,6.46,18.12.87,30.72.07,34.23-.17,6.42-.44,11.85-1.05,15.89-1.57,2.55.6,4.3,2.91,4.19,5.41-.1,2.28-1.73,4.28-4.02,4.89-12.33,1.93-22.7,2.76-30.21,3.14-36.41,1.88-64.07-3.53-74.91-5.94-9.2-2.04-16.67-4.21-21.65-5.76-3.27-.88-5.34-4.03-4.89-7.16.4-2.75,2.67-4.99,5.59-5.41Z"/><path class="cls-17" d="m1625.08,659.77c-5.23-.36-12.53-.5-21.15.58-6.52.81-11.97,1.49-18.39,4.11-4.56,1.86-14.35,5.85-21.13,15.91-8.2,12.15-6.75,25.36-6.18,29.26,4.04,1.29,10.19,3.09,17.79,4.68,10.12,2.11,24.16,4.13,59.21,3.15,11.25-.31,26.12-.98,43.7-2.46,1.04-3.64,2.02-8.3,2.34-13.76.27-4.52.02-8.52-.41-11.82-5.94.42-12.41.64-19.35.52-7.28-.13-14.04-.62-20.2-1.31-.16-3.27-.85-8.71-3.8-14.64-3.87-7.81-9.55-12.24-12.43-14.19Z"/><path class="cls-25" d="m1641.31,688.6c.39,6.53.78,13.06,1.16,19.59,6.33.31,13.48.29,21.29-.35,6.22-.51,11.94-1.34,17.1-2.32.62-1.22,1.57-3.48,1.62-6.45.07-4.06-1.58-7.02-2.33-8.21-5.86.22-10.79.34-14.49.4-7.93.13-10.24.02-12.63-.23-5-.54-9.04-1.58-11.74-2.42Z"/><path class="cls-15" d="m1624.8,657.66c-3.11-1.52-8.23-4.06-13.88-2.2-3.71,1.22-5.98,3.64-6.99,4.88,4.67,1.99,13.37,6.46,20.69,15.7,10.82,13.64,11.4,28.56,11.38,33.39,5.33-.2,10.67-.39,16-.59-.96-5.67-4.97-27.32-15.68-41.35-3.31-4.34-7-7.61-11.52-9.82Z"/><path class="cls-13" d="m1683.14,705.13c-6.01,1.05-14.27,2.29-24.15,3.17-23.66,2.11-41.87.81-52.61,0-18.09-1.37-30.49-3.71-33.95-4.38-6.32-1.23-11.63-2.5-15.58-3.51-2.6.28-4.63,2.36-4.82,4.86-.18,2.27,1.19,4.46,3.39,5.35,12,3.43,22.19,5.52,29.59,6.83,35.9,6.34,64.02,4.36,75.07,3.31,9.38-.89,17.06-2.13,22.2-3.06,3.36-.47,5.8-3.34,5.73-6.5-.06-2.78-2.04-5.28-4.88-6.06Z"/><path class="cls-38" d="m1660.14,188.17c-.03.66-.15,5.01,3.33,8.34,3.63,3.48,8.2,3.02,8.82,2.95-1.44-.32-4.6-1.23-7.55-3.95-3.01-2.78-4.17-5.93-4.6-7.34Z"/><path class="cls-38" d="m1657.42,194.97c0,.5.09,3.79,3.16,6.46,3.2,2.79,7.04,2.63,7.55,2.61-1.22-.3-3.93-1.12-6.53-3.31-2.65-2.23-3.76-4.67-4.18-5.76Z"/><path class="cls-38" d="m1655.5,199.89c0,.5.09,3.79,3.16,6.46,3.2,2.79,7.04,2.63,7.55,2.61-1.22-.3-3.93-1.12-6.53-3.31-2.65-2.23-3.76-4.67-4.18-5.76Z"/><path class="cls-38" d="m1606.03,187.4c-.03.66-.15,5.01,3.33,8.34,3.63,3.48,8.2,3.02,8.82,2.95-1.44-.32-4.6-1.23-7.55-3.95-3.01-2.78-4.17-5.93-4.6-7.34Z"/><path class="cls-38" d="m1603.31,194.21c0,.5.09,3.79,3.16,6.46,3.2,2.79,7.04,2.63,7.55,2.61-1.22-.3-3.93-1.12-6.53-3.31-2.65-2.23-3.76-4.67-4.18-5.76Z"/><path class="cls-38" d="m1601.39,199.13c0,.5.09,3.79,3.16,6.46,3.2,2.79,7.04,2.63,7.55,2.61-1.22-.3-3.93-1.12-6.53-3.31-2.65-2.23-3.76-4.67-4.18-5.76Z"/><path class="cls-40" d="m1795.25,428.89c6.97,9.61,14.17,19.3,21.6,29.04,18.71,24.55,37.5,47.63,56.15,69.32-5.44,5.96-10.89,11.92-16.33,17.88-13.64-.57-34.75-1.36-60.65-1.94-33.59-.75-48.58-.55-94.47-1.17-35.33-.48-36.32-.74-66.48-1.17-25.1-.35-61.98-.68-107.69-.39-5.18-6.09-10.37-12.18-15.55-18.27,4.94-7.95,11.37-17.63,19.46-28.27,12.56-16.53,19.75-23.07,33.11-40.28,5.85-7.54,12.77-16.99,20.13-28.24,12.88.58,25.84,1.1,38.88,1.56,58.62,2.03,115.92,2.62,171.83,1.94Z"/><path class="cls-41" d="m1537.19,517.83c102.08.58,204.16,1.16,306.24,1.74-19.18-24.99-38.35-49.97-57.53-74.96-64.31-1.74-128.62-3.49-192.93-5.23-18.6,26.15-37.19,52.3-55.79,78.45Z"/><path class="cls-20" d="m1878.01,433.95c.35-2.39,1.47-7.57,5.72-12.03,1.69-1.77,5.45-5.73,10.84-5.72.89,0,3.49.04,6.11,1.77.77.51,2.88,1.94,3.94,4.73,1.25,3.29.19,6.24-.2,7.29-.86,2.37-2.25,3.79-3.94,5.52-1.03,1.05-2.73,2.76-5.52,4.14-2.28,1.13-4.35,1.58-5.72,1.77-2.17.31-4.02.19-5.32,0,1.08,6.13.84,10.9.39,14.19-.14,1.02-.2,1.16-1.38,7.89-1.04,5.93-1.28,7.41-1.58,9.07-1.03,5.69-1.93,10.68-3.75,15.77-1.58,4.41-4.96,13.54-13.6,20.5-3.02,2.43-5.71,3.82-7.49,4.73-4.53,2.31-10.29,5.25-17.55,4.93-7.18-.32-12.27-3.67-16.56-6.51-3.29-2.17-7.84-5.18-11.43-11.04-1.51-2.46-5.26-9.36-4.53-18.33.44-5.47,2.37-9.51,3.94-12.81,2.35-4.93,4.76-7.66,5.32-8.28,1.14-1.26,2.41-2.39,2.41-2.39,1.16-1.02,3.19-2.67,3.31-2.54.12.14-1.69,2.79-3.31,2.54-.95-.15-1.15-1.18-2.41-3.33-2.01-3.45-3.1-3.56-5.52-7.69-.55-.93-.95-1.71-1.18-2.17,1.36-1.38,3.35-3.5,5.52-6.31,1.62-2.09,2.27-3.17,3.15-4.34,1.7-2.25,4.54-5.19,9.46-7.89,2.48-.5,6-1.05,10.25-1.18,4.3-.14,7.39.21,12.18.76,4.92.57,10.13,1.18,16.86,2.99,3.43.92,7.34,2.18,11.58,3.93Z"/><path class="cls-7" d="m1885.7,434.74c1.42,1.61,7.58.07,10.25-4.14,1.86-2.94,1.39-6.19,1.18-7.29-1.36.08-5.08.47-8.08,3.35-2.53,2.43-4.6,6.67-3.35,8.08Z"/><path class="cls-16" d="m1562.18,424.27c.89,1.1,2.23,2.59,4.09,4.09,1.73,1.4,5.3,4.28,10.41,5.2,4.13.75,5.31-.51,7.8.74,2.79,1.4,4.13,4.39,4.83,6.69-1.54,1.16-3.17,2.51-4.83,4.09-2.98,2.83-5.29,5.66-7.06,8.18-4.34.12-8.67.25-13.01.37-2.69,3.08-6.55,7.55-11.15,13.01-6.98,8.29-12.61,14.98-19.32,23.78-3.01,3.95-7.14,9.5-11.89,16.35-2.66-3.92-4.72-7.59-6.32-10.78-1.32-2.64-3.56-7.43-5.57-13.75-1.48-4.64-2.45-7.69-2.97-11.89-.87-6.94.06-12.41,1.86-23.04.55-3.28,1.1-5.97,1.49-7.8-4.26-3.22-6.78-6.66-8.18-8.92-1.66-2.68-3.42-5.53-3.72-9.66-.15-2.09-.46-6.45,2.6-10.03,2.4-2.81,6.29-4.55,10.03-4.09,6.72.83,10.41,8.41,11.15,13.75.81,5.86-1.74,10.47-2.73,12.07,2.6-.23,6.57-.75,11.25-2.12,4.54-1.34,4.82-2.03,8.79-3.04,4.66-1.19,6.42-.78,13.54-1.7,3.8-.49,6.88-1.07,8.92-1.49Z"/><path class="cls-9" d="m1513.87,428.36s3.23-6.15,1.49-10.78c-.06-.16-1.54-3.92-4.46-4.09-2.01-.11-3.71,1.54-4.46,2.97-1.27,2.42-.26,4.97,0,5.57,1.8,4.15,7.43,6.32,7.43,6.32Z"/><line class="cls-23" x1="1537.19" y1="517.83" x2="1511.84" y2="522.19"/><line class="cls-23" x1="1584.54" y1="425.39" x2="1591.23" y2="432.82"/><line class="cls-23" x1="1873" y1="527.24" x2="1850.81" y2="517.83"/><line class="cls-23" x1="1781.83" y1="439.38" x2="1795.25" y2="428.89"/><path class="cls-5" d="m1671.96,191.27c2.36-.56,7.18-1.31,12.31.74,4.02,1.61,6.69,4.32,8.23,5.89.36.36,2.08,2.13,3.56,4.37,4.61,6.97,6.2,17.46,2.91,26.85-.6,1.72-1.62,4.13-3.4,6.79-2.76-.88-6.7-1.81-11.48-1.85-6.12-.06-11.01,1.35-14.07,2.5-.62-.94-1.38-2.19-2.1-3.72-.34-.71-1.34-2.9-2.1-5.99-.31-1.27-1.04-4.56-.97-8.9.03-1.87.11-5.33,1.46-9.54,1.11-3.48,1.95-6.12,4.37-8.41,3.3-3.12,7.4-3.59,10.03-3.88,5.15-.58,9.36.75,11.81,1.78-1.23-1.46-3.9-4.21-8.23-5.89-5.57-2.15-10.49-1.2-12.31-.74Z"/><ellipse class="cls-38" cx="1687.62" cy="222.21" rx="9.83" ry="12.66"/><ellipse class="cls-34" cx="1687.62" cy="224.19" rx="5.63" ry="6.43"/><path class="cls-42" d="m1693.25,186.58c-.75-4.14-3.87-7.46-7.93-8.41-3.87-.91-7.95.47-10.51,3.56,2.24-.15,5.47-.12,9.22.81,4.14,1.03,7.26,2.75,9.22,4.04Z"/><path class="cls-5" d="m1617.74,188.01c2.36-.56,7.18-1.31,12.31.74,4.02,1.61,6.69,4.32,8.23,5.89.36.36,2.08,2.13,3.56,4.37,4.61,6.97,6.2,17.46,2.91,26.85-.6,1.72-1.62,4.13-3.4,6.79-2.76-.88-6.7-1.81-11.48-1.85-6.12-.06-11.01,1.35-14.07,2.5-.62-.94-1.38-2.19-2.1-3.72-.34-.71-1.34-2.9-2.1-5.99-.31-1.27-1.04-4.56-.97-8.9.03-1.87.11-5.33,1.46-9.54,1.11-3.48,1.95-6.12,4.37-8.41,3.3-3.12,7.4-3.59,10.03-3.88,5.15-.58,9.36.75,11.81,1.78-1.23-1.46-3.9-4.21-8.23-5.89-5.57-2.15-10.49-1.2-12.31-.74Z"/><ellipse class="cls-38" cx="1635.82" cy="219.92" rx="9.83" ry="12.66"/><ellipse class="cls-34" cx="1635.82" cy="222.21" rx="5.63" ry="6.43"/><path class="cls-10" d="m1646.24,235.92c-.81-2.69-2.66-4.27-3.71-5.17-.73-.63-6.28-5.21-13.12-3.08-.61.19-6.01,1.97-8.25,7.6-.34.86-2.15,5.4.16,9.87,2.67,5.15,8.62,5.96,10.03,6.15,1.33.18,4.75.59,8.25-1.29,4.88-2.63,8.21-8.84,6.63-14.07Z"/><path class="cls-42" d="m1612.88,182.24c.75-4.14,3.87-7.46,7.93-8.41,3.87-.91,7.95.47,10.51,3.56-2.24-.15-5.47-.12-9.22.81-4.14,1.03-7.26,2.75-9.22,4.04Z"/><path class="cls-11" d="m1760.34,225.66c-.27,1.52-1.55,7.77-7.29,12-3.49,2.56-7.04,3.23-8.87,3.43"/><path class="cls-38" d="m1666.26,281.55c11.07-6.5,23.56-10.39,36.38-11.29,1.92-.13,1.93-3.14,0-3-13.35.94-26.35,4.93-37.89,11.7-1.66.98-.16,3.57,1.51,2.59h0Z"/><path class="cls-38" d="m1699.75,263.74c2.11,2.6,2.66,6.6,1.37,9.63-.32.74-.22,1.61.54,2.05.63.37,1.73.21,2.05-.54,1.9-4.44,1.21-9.51-1.84-13.27-.51-.63-1.59-.53-2.12,0-.62.62-.51,1.49,0,2.12h0Z"/><path class="cls-33" d="m1694.59,238.73c0,.66-.03,1.32,0,1.98s.23,1.21.67,1.67c.32.33.74.56,1.18.7.3.1.65.14.97.1.22-.03.45-.04.66-.12.35-.14.56-.25.86-.5.15-.13.28-.3.38-.47.17-.25.24-.54.28-.84.04-.32.03-.58-.04-.91-.06-.24-.17-.48-.29-.7-.21-.38-.51-.72-.81-1.05-.23-.26-.48-.49-.74-.72-.31-.26-.65-.44-1.06-.44-.37,0-.81.16-1.06.44s-.46.66-.44,1.06.14.8.44,1.06c.4.35.78.73,1.11,1.15l-.23-.3c.11.15.22.31.29.48l-.15-.36c.03.09.06.17.07.26l-.05-.4c0,.07,0,.15,0,.22l.05-.4c-.01.06-.02.11-.04.16l.15-.36c-.03.06-.06.11-.1.17l.23-.3s-.07.08-.11.11l.3-.23c-.06.05-.12.08-.19.11l.36-.15c-.08.03-.17.06-.26.07l.4-.05c-.12.01-.23.01-.35,0l.4.05c-.12-.02-.23-.05-.34-.09l.36.15c-.1-.04-.19-.1-.27-.16l.3.23c-.07-.05-.13-.11-.18-.18l.23.3c-.04-.06-.08-.12-.11-.18l.15.36c-.03-.08-.05-.16-.06-.24l.05.4c-.03-.34,0-.69,0-1.03v-1.07c0-.38-.16-.79-.44-1.06s-.69-.46-1.06-.44-.79.14-1.06.44-.44.65-.44,1.06h0Z"/><path class="cls-33" d="m1696.6,245.43c-.02.31-.01.63.02.94.07.56.16,1.04.41,1.55.1.21.25.4.43.55.32.27.52.38.91.53.33.13.71.16,1.07.16.47,0,.93-.06,1.36-.24.29-.12.51-.26.76-.48.18-.16.33-.36.44-.58.16-.33.26-.64.25-1.02s-.11-.73-.3-1.05c-.25-.44-.63-.73-1.03-1.03-.56-.41-1.16-.76-1.79-1.05-.17-.11-.36-.17-.56-.18-.2-.04-.4-.04-.6.03-.35.1-.73.36-.9.69-.18.35-.28.77-.15,1.16.11.35.34.73.69.9.67.31,1.31.69,1.89,1.13l-.3-.23c.12.09.23.19.33.31l-.23-.3c.04.05.07.11.1.17l-.15-.36c.03.06.04.12.05.19l-.05-.4c0,.05,0,.1,0,.15l.05-.4s-.02.1-.04.14l.15-.36c-.03.06-.06.11-.1.16l.23-.3c-.05.06-.1.11-.16.16l.3-.23c-.07.05-.14.09-.22.12l.36-.15c-.12.04-.24.07-.36.09l.4-.05c-.25.03-.5.03-.75,0l.4.05c-.12-.02-.25-.05-.36-.09l.36.15c-.07-.03-.13-.06-.19-.11l.3.23c-.06-.05-.11-.1-.15-.15l.23.3c-.04-.06-.08-.12-.11-.19l.15.36c-.09-.23-.14-.49-.18-.73l.05.4c-.04-.31-.05-.63-.02-.94.03-.37-.19-.81-.44-1.06s-.69-.46-1.06-.44-.79.14-1.06.44l-.23.3c-.14.23-.2.49-.2.76h0Z"/><path class="cls-12" d="m1667.5,457.5c-9.81,6.21-16.18-1.34-28,4-9.63,4.35-10.91,11.84-17,11-4.47-.62-4.68-4.77-13-9-3.79-1.92-7.45-3.79-12-3-4.58.79-9.34,4.08-11,9-2.05,6.1.77,13.04,5,17,3.81,3.57,6.84,2.92,22,6,10.77,2.19,16.26,3.34,21,6,8.37,4.7,7.11,8.1,14,12,11.02,6.23,28.38,5.53,36-3,5.22-5.85,2.48-11.58,8-15,6.94-4.3,17.61.85,20,2,10,4.83,9.59,10.57,17,12,7.26,1.4,16.34-.45,20-6,2.61-3.97.39-6.55,3-9,.89-.84,3.54-2.78,23,1,6.44,1.25,8.14,1.85,11,1,4.23-1.26,9.19-5.16,10-11,.99-7.16-4.99-12.1-6-13-5.81-5.14-13.8-4.33-17-4-10.31,1.05-12.67,6.77-19,5-4.38-1.22-3.97-4.16-11-8-5.7-3.11-10.88-3.85-12-4-4.9-.64-6.23.64-20,2-4.87.48-5.79.44-7,0-5.27-1.91-4.81-7.28-10-11-6.3-4.51-14.64-2.11-15-2-6.3,1.91-5.9,6.14-12,10Z"/><text class="cls-4" transform="translate(276.12 308.09)"><tspan x="0" y="0">ØV!</tspan></text><text/><text class="cls-32" transform="translate(275.46 519.73)"><tspan class="cls-30" x="0" y="0">SIKKE </tspan><tspan class="cls-26" x="456.81" y="0">E</tspan><tspan class="cls-30" x="546.01" y="0">N KAGE</tspan><tspan class="cls-31" x="1058.1" y="0"> </tspan></text><text class="cls-29" transform="translate(275.64 655.08)"><tspan class="cls-37" x="0" y="0">D</tspan><tspan class="cls-43" x="60.23" y="0">E</tspan><tspan class="cls-1" x="109.08" y="0">T </tspan><tspan class="cls-44" x="196.02" y="0">V</tspan><tspan class="cls-2" x="247.33" y="0">AR </tspan><tspan class="cls-37" x="402.5" y="0">D</tspan><tspan class="cls-35" x="462.72" y="0">E</tspan><tspan class="cls-2" x="518.14" y="0">N FØDSELS</tspan><tspan class="cls-36" x="990.08" y="0">D</tspan><tspan class="cls-3" x="1045.08" y="0">AG</tspan></text><text/></g></svg>