<?xml version="1.0" encoding="UTF-8"?><svg id="Layer_2" xmlns="http://www.w3.org/2000/svg" width="671" height="218" viewBox="0 0 671 218"><defs><style>.cls-1{fill:#29abe2;font-family:MyriadPro-Regular, 'Myriad Pro';font-size:120px;}.cls-2{fill:blue;stroke-width:0px;}</style></defs><g id="Layer_5"><rect class="cls-2" x="2.5" y="2.5" width="666" height="213" rx="42.48" ry="42.48"/><path class="cls-2" d="m626.02,5c22.05,0,39.98,17.94,39.98,39.98v128.03c0,22.05-17.94,39.98-39.98,39.98H44.98c-22.05,0-39.98-17.94-39.98-39.98V44.98C5,22.94,22.94,5,44.98,5h581.03m0-5H44.98C20.14,0,0,20.14,0,44.98v128.03c0,24.84,20.14,44.98,44.98,44.98h581.03c24.84,0,44.98-20.14,44.98-44.98V44.98c0-24.84-20.14-44.98-44.98-44.98h0Z"/><text class="cls-1" transform="translate(105.57 145.27) scale(1.02 1)"><tspan x="0" y="0">SPIL IGEN</tspan></text></g></svg>