<?xml version="1.0" encoding="UTF-8"?><svg id="Layer_2" xmlns="http://www.w3.org/2000/svg" width="1733.2" height="981" viewBox="0 0 1733.2 981"><defs><style>.cls-1{font-size:12px;letter-spacing:0em;}.cls-2{font-family:MyriadPro-Regular, 'Myriad Pro';}.cls-3,.cls-4,.cls-5,.cls-6{fill:#29abe2;font-size:120px;}.cls-4{letter-spacing:0em;}.cls-5{letter-spacing:0em;}.cls-7{fill:blue;stroke-width:0px;}.cls-6{letter-spacing:-.07em;}</style></defs><g id="Layer_1-2"><path class="cls-7" d="m469.1,765.5h579.03c23.45,0,42.48,19.04,42.48,42.48v128.04c0,23.45-19.04,42.48-42.48,42.48H469.1c-23.45,0-42.48-19.04-42.48-42.48v-128.03c0-23.45,19.04-42.48,42.48-42.48Z"/><path class="cls-7" d="m1048.13,768c22.05,0,39.98,17.94,39.98,39.98v128.03c0,22.05-17.94,39.98-39.98,39.98H469.1c-22.05,0-39.98-17.94-39.98-39.98v-128.03c0-22.05,17.94-39.98,39.98-39.98h579.03m0-5H469.1c-24.84,0-44.98,20.14-44.98,44.98v128.03c0,24.84,20.14,44.98,44.98,44.98h579.03c24.84,0,44.98-20.14,44.98-44.98v-128.03c0-24.84-20.14-44.98-44.98-44.98h0Z"/><text class="cls-2" transform="translate(496.71 907.27) scale(.98 1)"><tspan class="cls-3" x="0" y="0">S</tspan><tspan class="cls-6" x="59.16" y="0">T</tspan><tspan class="cls-3" x="109.8" y="0">A</tspan><tspan class="cls-4" x="183.24" y="0">R</tspan><tspan class="cls-5" x="248.88" y="0">T</tspan><tspan class="cls-3" x="307.8" y="0">SIDE</tspan><tspan class="cls-1" x="534.59" y="0">E</tspan></text><text/><text/></g></svg>