<?xml version="1.0" encoding="UTF-8"?><svg id="Layer_2" xmlns="http://www.w3.org/2000/svg" width="348.03" height="360.86" viewBox="0 0 348.03 360.86"><defs><style>.cls-1{fill:#ffb4e9;stroke:#fff;stroke-miterlimit:10;stroke-width:10px;}</style></defs><g id="Layer_2-2"><path class="cls-1" d="m152.11,34.23c-3.73-4.02-30.58-32.07-70-29-22.05,1.71-37.88,12.37-45,18-3.49,2.76-21.45,17.4-29,43-7.36,24.96-.58,45.86,9,74,9.28,27.28,21.52,47.52,46,88,11.14,18.43,21.43,33.28,42,63,12.83,18.53,20.76,29.36,34,41,12.81,11.26,25.16,18.51,34,23,8.64-4.55,19.79-11.05,32-20,3.29-2.41,18.12-13.41,36-32,15.6-16.22,25.33-29.7,37-46,13.04-18.21,22.19-31,32-50,14.61-28.3,21.13-51.91,23-59,8.28-31.43,13.49-51.19,7-76-2.15-8.22-9.45-34.59-34-52-13.45-9.54-26.3-12.29-30-13-5.32-1.02-31.58-5.44-54,10-10.87,7.49-16.8,16.86-27,33-5.56,8.8-9.46,16.54-12,22-10.33-12.67-20.67-25.33-31-38Z"/></g></svg>